<?xml version="1.0" standalone="no"?>
<!DOCTYPE svg PUBLIC "-//W3C//DTD SVG 1.1//EN" "http://www.w3.org/Graphics/SVG/1.1/DTD/svg11.dtd">
<svg xmlns="http://www.w3.org/2000/svg">
<metadata>This SVG font generated by Fontastic.me</metadata>
<defs>
<font id="fontastic" horiz-adv-x="512">
  <font-face font-family="fontastic" font-weight="500" font-stretch="normal" units-per-em="512" panose-1="2 0 6 3 0 0 0 0 0 0" ascent="480" descent="-32" x-height="448" cap-height="435" bbox="-2 -37 513 480.029" underline-thickness="50" underline-position="-100" unicode-range="U+0021-E041"/>
    <missing-glyph/>
    <glyph glyph-name="a" unicode="a" d="M512 412l-114 -114l55 -56h-181v181l58 -57l114 114zM416 75l3 -5c6 -12 17 -36 1 -55c-8 -10 -33 -38 -60 -46c-21 -4 -152 0 -260 122s-105 267 -97 283c13 25 42 45 53 52c4 2 8 4 12 5c17 4 32 -6 42 -13l5 -3c16 -9 31 -100 31 -107c-1 -14 -14 -27 -46 -55 c10 -31 37 -72 59 -97c20 -23 64 -62 95 -76c28 25 41 36 53 38l6 1c7 0 96 -27 103 -44z"/>
    <glyph glyph-name="b" unicode="b" d="M113 167c23 -38 49 -69 82 -99l-105 -105l-90 91zM301 177c-34 29 -58 57 -79 99l140 140l91 -91l-151 -150c-1 0 0 1 -1 2zM502 102l-2 5c-7 17 -96 44 -103 44l-6 -1c-12 -2 -25 -13 -53 -38c-30 14 -73 51 -95 76c-15 17 -31 41 -44 65c-6 11 -12 22 -15 32 c32 28 45 41 46 55c0 7 -15 98 -31 107l-5 3c-9 6 -20 14 -35 14c-8 0 -14 -3 -19 -6c-11 -7 -40 -27 -53 -52c-6 -13 -10 -113 49 -216c13 -23 29 -45 48 -67c29 -33 62 -59 101 -81c40 -22 86 -42 145 -42h1h1c5 0 10 0 14 1c27 10 49 35 58 46c16 19 4 43 -2 55z"/>
    <glyph glyph-name="c" unicode="c" d="M447 77l-2 6c-8 18 -102 46 -110 46h-7c-13 -3 -26 -16 -56 -42c-34 16 -80 58 -102 82c-23 26 -52 71 -63 104c34 30 48 43 49 58c0 8 -16 105 -33 115l-5 3c-11 7 -28 18 -46 14c-4 -1 -8 -3 -12 -5c-12 -8 -42 -29 -56 -56c-8 -17 -13 -172 103 -303 c115 -130 256 -134 278 -130c29 9 55 38 64 49c17 21 5 46 -2 59z"/>
    <glyph glyph-name="d" unicode="d" d="M448 320c32 0 64 -32 64 -64v-128c0 -32 -32 -64 -64 -64v-96l-96 96h-160c-32 0 -64 32 -64 64v19l45 45h147c49 0 96 47 96 96v32h32zM160 224l-96 -96v96c-32 0 -64 32 -64 64v128c0 32 32 64 64 64h256c32 0 64 -32 64 -64v-128c0 -32 -32 -64 -64 -64h-160z"/>
    <glyph glyph-name="e" unicode="e" d="M0 480h512v-160h-320l-96 -96v96h-96v160zM160 224h352v-160h-96v-96l-96 96h-320v160h64v-96z"/>
    <glyph glyph-name="f" unicode="f" d="M366 304c-107 0 -195 -79 -195 -176c0 -35 13 -67 28 -90c-13 3 -26 6 -38 10l-161 -80l68 136c-42 40 -68 93 -68 152c0 124 115 224 256 224s256 -100 256 -224c0 -4 -1 -8 -1 -12c-36 37 -87 60 -145 60zM465 70l47 -102l-121 53c-3 -1 -7 -2 -10 -3 c-74 -17 -145 22 -160 86s33 130 107 147s145 -22 160 -86c8 -34 -2 -68 -23 -95z"/>
    <glyph glyph-name="g" unicode="g" d="M416 75l3 -5c6 -12 17 -36 1 -55c-8 -10 -33 -38 -60 -46c-21 -4 -152 0 -260 122s-105 267 -97 283c13 25 42 45 53 52c4 2 8 4 12 5c17 4 32 -6 42 -13l5 -3c16 -9 31 -100 31 -107c-1 -14 -14 -27 -46 -55c10 -31 37 -72 59 -97c20 -23 64 -62 95 -76 c28 25 41 36 53 38l6 1c7 0 96 -27 103 -44zM444 367l68 -68l-45 -45l-68 68l-68 -68l-45 45l68 68l-68 68l45 45l68 -68l68 68l45 -45z"/>
    <glyph glyph-name="h" unicode="h" d="M384 288l-128 -128l-128 128h64v160h128v-160h64zM444 320l68 -160v-192h-512v192l68 160h28l-48 -128h112c0 -53 43 -96 96 -96s96 43 96 96h112l-48 128h28z"/>
    <glyph glyph-name="i" unicode="i" d="M192 192v160h-64l128 128l128 -128h-64v-160h-128zM444 320l68 -160v-192h-512v192l68 160h60v-32h-39l-41 -96h112c0 -53 43 -96 96 -96s96 43 96 96h112l-41 96h-39v32h60z"/>
    <glyph glyph-name="j" unicode="j" d="M416 75l3 -5c6 -12 17 -36 1 -55c-8 -10 -33 -38 -60 -46c-21 -4 -152 0 -260 122s-105 267 -97 283c13 25 42 45 53 52c4 2 8 4 12 5c17 4 32 -6 42 -13l5 -3c16 -9 31 -100 31 -107c-1 -14 -14 -27 -46 -55c10 -31 37 -72 59 -97c20 -23 64 -62 95 -76 c28 25 41 36 53 38l6 1c7 0 96 -27 103 -44zM279 247c-8 8 -19 10 -29 8l1 33c18 2 36 -5 50 -19s21 -32 19 -50l-33 -1c2 10 0 21 -8 29zM384 219c1 34 -11 70 -37 96s-62 38 -96 37l1 32c42 1 85 -15 117 -47s48 -75 47 -117zM437 405c-51 51 -117 76 -184 75l-1 -32 c59 1 118 -20 163 -65s66 -104 65 -163l32 1c1 67 -24 133 -75 184z"/>
    <glyph glyph-name="k" unicode="k" d="M331 480h181v-181l-58 58l-114 -115l-68 68l114 115zM416 75l3 -5c6 -12 17 -36 1 -55c-8 -10 -33 -38 -60 -46c-21 -4 -152 0 -260 122s-105 267 -97 283c13 25 42 45 53 52c4 2 8 4 12 5c17 4 32 -6 42 -13l5 -3c16 -9 31 -100 31 -107c-1 -14 -14 -27 -46 -55 c10 -31 37 -72 59 -97c20 -23 64 -62 95 -76c28 25 41 36 53 38l6 1c7 0 96 -27 103 -44z"/>
    <glyph glyph-name="l" unicode="l" d="M256 480c-141 0 -256 -115 -256 -256c0 -139 115 -254 256 -256h3c62 0 102 22 114 61c4 14 3 26 -2 37c18 10 37 33 43 39c14 16 3 35 -1 46c-5 13 -71 35 -76 35h-4c-9 -2 -27 -21 -49 -39c-44 23 -77 60 -91 110c25 20 43 37 44 47c1 5 -8 74 -20 81 c-11 8 -27 19 -44 10c-9 -5 -39 -26 -49 -45c-6 -12 -23 -107 55 -202c66 -81 142 -88 171 -87c2 -7 2 -14 0 -20c-7 -21 -38 -43 -94 -41c-124 2 -224 102 -224 224c0 124 101 224 224 224s224 -100 224 -224c0 -30 -10 -73 -28 -108c-6 -11 -1 -22 8 -28l8 -2l7 5 c24 41 37 96 37 133c0 141 -115 256 -256 256z"/>
    <glyph glyph-name="m" unicode="m" d="M476 357c22 -28 36 -63 36 -101c0 -88 -72 -160 -160 -160c-46 0 -88 20 -117 51c-22 -12 -48 -19 -75 -19c-88 0 -160 72 -160 160c0 81 59 147 137 158c23 21 53 34 87 34s64 -13 87 -34c18 21 43 34 73 34c53 0 96 -43 96 -96c0 -10 -1 -18 -4 -27zM352 128 c71 0 128 57 128 128c0 29 -10 57 -29 80l-11 13l5 17c2 7 3 13 3 18c0 35 -29 64 -64 64c-19 0 -37 -8 -49 -23l-21 -26l-25 23c-18 17 -41 26 -65 26s-47 -9 -65 -26l-7 -7l-10 -1c-63 -9 -110 -63 -110 -126c0 -71 57 -128 128 -128c20 0 41 6 60 16l22 11l16 -18 c25 -27 58 -41 94 -41zM64 32c18 0 32 -14 32 -32s-14 -32 -32 -32s-32 14 -32 32s14 32 32 32zM176 96c-27 0 -48 -22 -48 -48s21 -48 48 -48s48 22 48 48s-21 48 -48 48z"/>
    <glyph glyph-name="n" unicode="n" d="M64 416v-256h128v-96l128 96h128v256h-384zM0 480h512v-384h-204l-180 -128v128h-128v384z"/>
    <glyph glyph-name="o" unicode="o" d="M476 357c22 -28 36 -63 36 -101c0 -88 -72 -160 -160 -160c-46 0 -88 20 -117 51c-22 -12 -48 -19 -75 -19c-88 0 -160 72 -160 160c0 81 59 147 137 158c23 21 53 34 87 34s64 -13 87 -34c18 21 44 34 73 34c53 0 96 -43 96 -96c0 -10 -1 -18 -4 -27zM64 32 c18 0 32 -14 32 -32s-14 -32 -32 -32s-32 14 -32 32s14 32 32 32zM176 96c-27 0 -48 -22 -48 -48s21 -48 48 -48s48 22 48 48s-21 48 -48 48z"/>
    <glyph glyph-name="p" unicode="p" d="M480 448c18 0 32 -14 32 -32v-320c0 -18 -14 -32 -32 -32h-220l-132 -96v96h-96c-18 0 -32 14 -32 32v320c0 18 14 32 32 32h448zM448 128v256h-384v-256h384z"/>
    <glyph glyph-name="q" unicode="q" d="M256 480c141 0 256 -100 256 -224s-115 -224 -256 -224c-34 0 -66 6 -95 16l-161 -80l68 136c-42 40 -68 93 -68 152c0 124 115 224 256 224zM256 96c-106 0 -192 72 -192 160s86 160 192 160s192 -72 192 -160s-86 -160 -192 -160z"/>
    <glyph glyph-name="r" unicode="r" d="M256 480c141 0 256 -100 256 -224s-115 -224 -256 -224c-34 0 -65 6 -95 16l-161 -80l68 136c-42 40 -68 93 -68 152c0 124 115 224 256 224zM233 426c-16 0 -17 -11 -17 -16l10 -184c2 -15 9 -18 19 -18h25c10 0 17 3 19 18l10 184c0 5 -1 16 -18 16h-48zM258 86 c-26 0 -48 21 -48 47c0 27 21 47 48 47c26 0 47 -21 47 -47s-21 -47 -47 -47z"/>
    <glyph glyph-name="s" unicode="s" d="M325 480h-138c-103 0 -187 -86 -187 -192c0 -97 70 -177 160 -190v-130l128 128h37c103 0 187 86 187 192s-84 192 -187 192z"/>
    <glyph glyph-name="t" unicode="t" d="M416 75l3 -5c6 -12 17 -36 1 -55c-8 -10 -33 -38 -60 -46c-21 -4 -152 0 -260 122s-105 267 -97 283c13 25 42 45 53 52c4 2 8 4 12 5c17 4 32 -6 42 -13l5 -3c16 -9 31 -100 31 -107c-1 -14 -14 -27 -46 -55c10 -31 37 -72 59 -97c20 -23 64 -62 95 -76 c28 25 41 36 53 38l6 1c7 0 96 -27 103 -44zM416 384h96v-96h-96v-96h-96v96h-96v96h96v96h96v-96z"/>
    <glyph glyph-name="u" unicode="u" d="M192 160v-96l64 96l192 256zM0 192l512 288l-64 -512l-153 120l-135 -120v192z"/>
    <glyph glyph-name="v" unicode="v" d="M384 128v32h128v-192h-512v192h128v-32c0 -35 29 -64 64 -64h128c35 0 64 29 64 64zM352 288v-64l160 128l-160 128v-64c-93 -33 -160 -118 -160 -222c0 -12 1 -23 3 -34c29 96 77 121 157 128z"/>
    <glyph glyph-name="w" unicode="w" d="M480 480c18 0 32 -14 32 -32v-352c0 -18 -14 -32 -32 -32h-220l-132 -96v96h-96c-18 0 -32 14 -32 32v352c0 18 14 32 32 32h448zM448 128v288h-384v-288h384zM125 352h256v-32h-256v32zM125 288h256v-32h-256v32zM125 224h160v-32h-160v32z"/>
    <glyph glyph-name="y" unicode="y" d="M64 312c0 -49 42 -90 98 -101c-10 -20 -15 -41 -17 -62c-8 2 -16 4 -24 7l-121 -60l51 103c-32 30 -51 69 -51 113c0 93 86 168 192 168c105 0 191 -74 192 -166c-13 3 -26 4 -40 4c-8 0 -17 0 -25 -1c-3 55 -58 99 -127 99c-71 0 -128 -47 -128 -104zM389 22 c-17 -7 -41 -12 -63 -12c-68 0 -126 40 -140 101c-16 72 38 146 120 165c13 3 25 4 38 4c68 0 126 -40 140 -101c8 -36 0 -72 -22 -102l50 -109zM351 77c-8 -2 -17 -3 -25 -3c-39 0 -71 21 -78 51c-5 22 5 42 12 51c17 23 46 40 84 40c39 0 71 -21 78 -51 c8 -37 -24 -77 -71 -88z"/>
    <glyph glyph-name="x" unicode="x" d="M475 382c22 -18 37 -32 37 -60v-34c0 -18 -13 -32 -31 -32h-64c-18 0 -32 15 -32 32s-3 32 -18 52s-47 44 -111 43c-64 1 -95 -24 -110 -43c-15 -20 -18 -34 -18 -52c0 -17 -14 -32 -32 -32h-64c-18 0 -32 14 -32 32v34c0 28 15 42 37 60c39 33 91 66 219 66 s180 -33 219 -66zM368 256c10 0 20 -5 26 -13c24 -34 86 -127 86 -182v-61c0 -18 -14 -32 -32 -32h-384c-18 0 -32 14 -32 32v64c0 43 62 141 86 178c6 9 16 14 27 14h15v32c0 18 14 32 32 32h128c18 0 32 -14 32 -32v-32h16zM192 32v32h-64v-32h64zM192 96v32h-64v-32h64z M192 160v32h-64v-32h64zM288 32v32h-64v-32h64zM288 96v32h-64v-32h64zM288 160v32h-64v-32h64zM384 32v32h-64v-32h64zM384 96v32h-64v-32h64zM384 160v32h-64v-32h64z"/>
    <glyph glyph-name="z" unicode="z" d="M475 382c22 -18 37 -32 37 -60v-34c0 -18 -13 -32 -31 -32h-64c-18 0 -32 15 -32 32s-4 32 -19 52c-15 19 -46 44 -110 43c-64 1 -95 -24 -110 -43c-15 -20 -18 -34 -18 -52c0 -17 -14 -32 -32 -32h-64c-18 0 -32 14 -32 32v34c0 28 15 42 37 60c39 33 91 66 219 66 s180 -33 219 -66zM256 160c-35 0 -64 -29 -64 -64s29 -64 64 -64s64 29 64 64s-29 64 -64 64zM368 256c10 0 20 -5 26 -13c24 -34 86 -127 86 -182v-61c0 -18 -14 -32 -32 -32h-384c-18 0 -32 14 -32 32v64c0 43 62 141 86 178c6 9 16 14 27 14h15v40c0 13 14 24 32 24 s32 -11 32 -24v-40h64v40c0 13 14 24 32 24s32 -11 32 -24v-40h16zM256 0c-53 0 -96 43 -96 96s43 96 96 96s96 -43 96 -96s-43 -96 -96 -96z"/>
    <glyph glyph-name="A" unicode="A" d="M503 354c6 -11 9 -22 9 -34v-41c0 -19 -18 -35 -38 -31l-96 19c-15 3 -26 16 -26 31v46c0 14 -9 26 -23 30c-22 6 -47 10 -73 10s-50 -4 -72 -10c-14 -4 -24 -16 -24 -30v-46c0 -15 -11 -28 -26 -31l-96 -19c-20 -4 -38 12 -38 31v41c0 12 3 23 9 34c30 54 129 94 247 94 s217 -40 247 -94zM128 224h64v-64h-64v64zM224 224h64v-64h-64v64zM320 224h64v-64h-64v64zM128 128h64v-64h-64v64zM224 128h64v-64h-64v64zM320 128h64v-64h-64v64zM128 32h64v-64h-64v64zM224 32h64v-64h-64v64zM320 32h64v-64h-64v64z"/>
    <glyph glyph-name="B" unicode="B" d="M460 287c-19 99 -104 172 -207 172c-107 0 -198 -79 -217 -178c-21 -10 -36 -32 -36 -57v-64c0 -35 29 -64 64 -64s64 29 64 64v64c0 34 -27 62 -61 64c21 81 98 142 186 142s159 -61 177 -145c-27 -8 -46 -32 -46 -61v-64c0 -35 29 -64 64 -64v-16 c0 -48 -16 -48 -48 -48h-123c-7 19 -24 32 -45 32c-26 0 -48 -21 -48 -48c0 -26 22 -48 48 -48c21 0 38 13 45 32h123c32 0 80 0 80 80v25c19 11 32 31 32 55v64c0 31 -22 57 -52 63z"/>
    <glyph glyph-name="C" unicode="C" d="M325 480c103 0 187 -86 187 -192s-84 -192 -187 -192h-37l-128 -128v130c-90 13 -160 93 -160 190c0 106 84 192 187 192h138zM128 240c26 0 48 22 48 48s-22 48 -48 48s-48 -22 -48 -48s22 -48 48 -48zM256 240c26 0 48 22 48 48s-22 48 -48 48s-48 -22 -48 -48 s22 -48 48 -48zM384 240c-26 0 -48 22 -48 48s22 48 48 48s48 -22 48 -48s-22 -48 -48 -48z"/>
    <glyph glyph-name="D" unicode="D" d="M480 448c18 0 32 -14 32 -32v-320c0 -18 -14 -32 -32 -32h-220l-132 -96v96h-96c-18 0 -32 14 -32 32v320c0 18 14 32 32 32h448zM448 128v256h-384v-256h384zM149 224c-18 0 -32 14 -32 32s14 32 32 32s32 -14 32 -32s-14 -32 -32 -32zM261 224c-18 0 -32 14 -32 32 s14 32 32 32s32 -14 32 -32s-14 -32 -32 -32zM373 224c18 0 32 14 32 32s-14 32 -32 32s-32 -14 -32 -32s14 -32 32 -32z"/>
    <glyph glyph-name="E" unicode="E" d="M488 89c-15 23 -65 38 -115 59s-61 28 -61 28l-1 47s19 15 25 60c12 -3 23 17 24 28s-1 40 -15 37c3 22 5 42 4 52c-4 38 -42 79 -100 79s-95 -41 -99 -79c-1 -10 1 -30 4 -52c-14 3 -17 -26 -16 -37s12 -31 24 -28c6 -45 25 -60 25 -60l-1 -47s-11 -7 -61 -28 s-100 -36 -115 -59c-13 -21 -9 -121 -9 -121h497s3 100 -10 121z"/>
    <glyph glyph-name="F" unicode="F" d="M384 192c0 -64 64 -96 64 -96v-32h-384v32s64 32 64 96c0 58 1 169 97 189c0 1 -1 2 -1 3c0 18 14 32 32 32s32 -14 32 -32c0 -1 -1 -2 -1 -3c96 -20 97 -131 97 -189zM224 0h64c18 0 32 14 32 32h-128c0 -18 14 -32 32 -32z"/>
    <glyph glyph-name="G" unicode="G" d="M160 288h64v-64h-64v64zM256 288h64v-64h-64v64zM352 288h64v-64h-64v64zM64 192h64v-64h-64v64zM160 192h64v-64h-64v64zM256 192h64v-64h-64v64zM352 192h64v-64h-64v64zM64 96h64v-64h-64v64zM160 96h64v-64h-64v64zM256 96h64v-64h-64v64zM416 416h64v-448h-480v448 h64v48c0 9 7 16 16 16h64c9 0 16 -7 16 -16v-48h160v48c0 9 7 16 16 16h64c9 0 16 -7 16 -16v-48zM352 448v-64h32v64h-32zM96 448v-64h32v64h-32zM448 0v320h-416v-320h416z"/>
    <glyph glyph-name="H" unicode="H" d="M134 216l-38 -9l-12 48l66 18h45v-225h-61v168zM252 48l99 172h-104v52h173v-47l-99 -177h-69zM416 416h64v-448h-480v448h64v48c0 9 7 16 16 16h64c9 0 16 -7 16 -16v-48h160v48c0 9 7 16 16 16h64c9 0 16 -7 16 -16v-48zM352 448v-64h32v64h-32zM96 448v-64h32v64h-32z M448 0v320h-416v-320h416z"/>
    <glyph glyph-name="I" unicode="I" d="M470 70c-42 12 -101 13 -150 50v65c49 -23 108 -22 128 39c-32 0 -64 32 -64 128c0 64 -96 115 -128 83c-32 32 -128 -19 -128 -83c0 -96 -32 -128 -64 -128c20 -61 79 -62 128 -39v-65c-49 -37 -108 -38 -150 -50c-25 -7 -42 -46 -42 -71v-31h512v31c0 25 -17 64 -42 71 z"/>
    <glyph glyph-name="J" unicode="J" d="M502 59c6 -9 9 -34 10 -59v-32h-512v32c1 25 4 50 10 59c15 23 67 37 118 58s63 28 63 28l1 48s-19 14 -25 59c-12 -3 -25 17 -26 28s2 40 17 37c0 1 -1 2 -1 3h-45c-9 0 -16 7 -16 16s7 16 16 16h16h16h10v0h-10c8 8 16 32 16 96c0 72 64 0 96 0s96 72 96 0 c0 -64 8 -88 16 -96h-10v0h42c9 0 16 -7 16 -16s-7 -16 -16 -16h-45c0 -1 -1 -2 -1 -3c15 3 18 -26 17 -37s-14 -31 -26 -28c-6 -45 -25 -59 -25 -59l1 -48s12 -7 63 -28s103 -35 118 -58zM248 96h2l-1 1z"/>
    <glyph glyph-name="K" unicode="K" d="M264 116c35 -15 70 -25 81 -42c9 -15 7 -106 7 -106h-352s-3 91 7 106c11 17 46 27 81 42s44 19 44 19v34s-13 10 -17 42c-8 -2 -18 12 -18 20c0 7 2 28 12 26c-2 16 -4 30 -3 37c3 27 29 55 70 55s67 -28 70 -55c1 -7 -1 -21 -3 -37c10 2 12 -19 12 -26 c0 -8 -10 -22 -18 -20c-4 -32 -17 -42 -17 -42v-34s9 -4 44 -19zM506 63c-9 15 -9 25 -41 38s-39 17 -39 17l-1 31s12 8 16 37c7 -2 16 11 16 18s-2 25 -11 23c2 14 4 27 3 34c-2 24 -26 50 -63 50s-61 -26 -63 -50c-1 -7 0 -20 2 -34c-9 2 -10 -16 -10 -23s9 -20 16 -18 c4 -29 15 -37 15 -37l-10 -9c30 -14 62 -33 62 -53v-119h114s3 82 -6 95z"/>
    <glyph glyph-name="L" unicode="L" d="M288 352c35 0 64 -29 64 -64v-128h-32v-192h-128v192h-32v128c0 35 29 64 64 64h64zM256 384c-27 0 -48 22 -48 48s21 48 48 48c26 0 48 -22 48 -48s-22 -48 -48 -48zM448 352c-18 0 -32 14 -32 32s14 32 32 32s32 -14 32 -32s-14 -32 -32 -32zM480 320 c18 0 32 -14 32 -32v-128h-32v-128h-64v128h-32v128c0 18 14 32 32 32h64zM64 352c-18 0 -32 14 -32 32s14 32 32 32s32 -14 32 -32s-14 -32 -32 -32zM96 320h-64c-18 0 -32 -14 -32 -32v-128h32v-128h64v128h32v128c0 18 -14 32 -32 32z"/>
    <glyph glyph-name="M" unicode="M" d="M480 346c0 -32 -22 -58 -48 -58s-48 26 -48 58s22 57 48 57s48 -25 48 -57zM128 346c0 -32 -22 -58 -48 -58s-48 26 -48 58s22 57 48 57s48 -25 48 -57zM128 227c0 -24 6 -47 15 -67h-143v64c0 35 29 64 64 64h76c-8 -19 -12 -39 -12 -61zM448 288c35 0 64 -29 64 -64 v-64h-148c9 20 15 43 15 67c0 22 -4 42 -12 61h81zM342 125c-7 2 -15 3 -22 3h-24c30 19 51 56 51 99c0 62 -42 112 -94 112s-93 -50 -93 -112c0 -43 21 -80 51 -99h-19c-9 0 -18 -2 -26 -4c-40 -11 -70 -48 -70 -92v-64h320v64c0 45 -32 83 -74 93z"/>
    <glyph glyph-name="N" unicode="N" d="M488 91c13 -21 10 -122 10 -122h-497s-4 101 9 122c15 23 65 37 115 58s61 28 61 28l1 48s-19 14 -25 59c-12 -3 -23 17 -24 28s2 40 16 37c-3 22 -5 42 -4 52c4 38 41 79 99 79s96 -41 100 -79c1 -10 -1 -30 -4 -52c14 3 16 -26 15 -37s-12 -31 -24 -28 c-6 -45 -25 -59 -25 -59l1 -48s11 -7 61 -28s100 -35 115 -58zM402 33v32h-128v-32h128z"/>
    <glyph glyph-name="O" unicode="O" d="M0 416h512v-384h-128v32h-32v-32h-192v32h-32v-32h-128v384zM480 64v320h-448v-320h64v32h96v-32h128v32h96v-32h64zM96 320h128v-160h-128v160zM288 320h128v-32h-128v32zM288 256h128v-32h-128v32zM288 192h96v-32h-96v32z"/>
    <glyph glyph-name="P" unicode="P" d="M264 102c35 -15 70 -27 81 -44c9 -16 7 -90 7 -90h-352s-2 74 7 90c11 17 46 29 81 44s44 21 44 21v35s-13 11 -17 44c-8 -3 -16 13 -17 21c0 8 1 30 11 28c-2 16 -4 31 -3 39c3 29 29 58 70 58s68 -29 71 -58c1 -8 -1 -23 -3 -39c10 2 11 -20 11 -28 c-1 -8 -9 -24 -17 -21c-4 -33 -18 -44 -18 -44l1 -35s8 -6 43 -21zM512 299l-45 -45l-68 68l-68 -68l-45 45l68 68l-68 68l45 45l68 -68l68 68l45 -45l-68 -68z"/>
    <glyph glyph-name="Q" unicode="Q" d="M264 102c35 -15 70 -27 81 -44c9 -16 7 -90 7 -90h-352s-2 74 7 90c11 17 46 29 81 44s44 21 44 21v35s-13 11 -17 44c-8 -3 -16 13 -17 21c0 8 1 30 11 28c-2 16 -4 31 -3 39c3 29 29 58 70 58s68 -29 71 -58c1 -8 -1 -23 -3 -39c10 2 11 -20 11 -28 c-1 -8 -9 -24 -17 -21c-4 -33 -18 -44 -18 -44l1 -35s8 -6 43 -21zM400 480c62 0 112 -50 112 -112s-50 -112 -112 -112s-112 50 -112 112s50 112 112 112zM400 448c-44 0 -80 -36 -80 -80c0 -16 5 -31 13 -43l110 110c-12 8 -27 13 -43 13zM400 288c-17 0 -32 5 -45 14 l111 111c9 -13 14 -28 14 -45c0 -44 -36 -80 -80 -80z"/>
    <glyph glyph-name="R" unicode="R" d="M288 113c38 -17 76 -28 88 -47c10 -17 8 -98 8 -98h-384s-3 81 7 98c12 19 51 30 89 47s47 23 47 23l1 38s-14 12 -19 48c-9 -3 -18 14 -19 23c0 9 1 32 12 30c-2 18 -4 34 -3 42c3 31 32 63 77 63s74 -32 77 -63c1 -8 -2 -24 -4 -42c11 2 14 -21 13 -30s-10 -26 -19 -23 c-5 -36 -19 -48 -19 -48v-38s10 -6 48 -23zM512 416v-64h-64v-64h-64v64h-64v64h64v64h64v-64h64z"/>
    <glyph glyph-name="S" unicode="S" d="M288 113c38 -17 76 -28 88 -47c10 -17 8 -98 8 -98h-384s-3 81 7 98c12 19 51 30 89 47s47 23 47 23l1 38s-14 12 -19 48c-9 -3 -18 14 -19 23c0 9 1 32 12 30c-2 18 -4 34 -3 42c3 31 32 63 77 63s74 -32 77 -63c1 -8 -2 -24 -4 -42c11 2 13 -21 13 -30 c-1 -9 -10 -26 -19 -23c-5 -36 -19 -48 -19 -48v-38s10 -6 48 -23zM320 416h192v-64h-192v64z"/>
    <glyph glyph-name="T" unicode="T" d="M268 97c36 -15 71 -25 82 -42c10 -15 7 -87 7 -87h-356s-3 72 7 87c11 17 46 27 82 42s44 20 44 20v34s-13 10 -17 42c-8 -2 -17 12 -18 20c0 7 1 29 11 27c-2 16 -3 30 -2 37c3 27 29 57 71 57s68 -30 71 -57c1 -7 -1 -21 -3 -37c10 2 12 -19 11 -27 c0 -8 -9 -22 -17 -20c-4 -32 -18 -42 -18 -42l1 -34s8 -5 44 -20zM193 480h319v-224l-63 1l-129 -96v96l-31 -1v32l31 1h32v-64c29 21 57 43 86 64h11l31 -1v160h-255v-64h-32v96z"/>
    <glyph glyph-name="U" unicode="U" d="M320 352h192v-384h-512v384h192v96h128v-96zM224 416v-128h64v128h-64zM480 0v288h-160c0 -18 -14 -32 -32 -32h-64c-18 0 -32 14 -32 32h-160v-288h448zM175 126c15 -6 30 -10 34 -17c4 -6 2 -21 2 -21h-147s-1 15 3 21c4 7 19 11 34 17s18 8 18 8v14s-5 5 -7 18 c-3 -1 -7 5 -7 8s1 12 5 11c-1 7 -2 13 -2 16c1 11 13 23 30 23s28 -12 29 -23c0 -3 0 -9 -1 -16c4 1 5 -8 5 -11s-4 -9 -7 -8c-2 -13 -8 -18 -8 -18v-14s4 -2 19 -8zM256 192h128v-32h-128v32zM416 192h32v-32h-32v32zM256 128h96v-32h-96v32zM384 128h64v-32h-64v32z"/>
    <glyph glyph-name="V" unicode="V" d="M384 384v-64h-256v64h64c0 35 29 64 64 64s64 -29 64 -64h64zM256 352c18 0 32 14 32 32s-14 32 -32 32s-32 -14 -32 -32s14 -32 32 -32zM192 64h-91s-1 53 1 57c3 4 12 6 21 10s12 5 12 5v9s-4 3 -5 11l-4 5l3 7c0 4 -1 8 -1 10c1 7 7 14 18 14s18 -7 19 -14 c0 -2 0 -6 -1 -10l3 -7l-5 -5c-1 -8 -4 -11 -4 -11v-9s2 -1 11 -5s18 -6 21 -10c2 -4 2 -57 2 -57zM416 384h96v-416h-512v416h96v-96h320v96zM224 32v192h-160v-192h160zM448 128v32h-160v-32h160zM448 192v32h-160v-32h160z"/>
    <glyph glyph-name="W" unicode="W" d="M160 480h256v-64h-62c-35 0 -64 -29 -64 -64v-384l-113 113l-113 -113v416c0 64 32 96 96 96z"/>
    <glyph glyph-name="X" unicode="X" d="M432 474c9 0 16 -7 16 -16v-480c0 -9 -6 -12 -14 -8l-178 88l-178 -88c-8 -4 -14 -1 -14 8v480c0 9 7 16 16 16h352zM335 154l-30 93l79 58h-98l-30 93l-30 -93h-98l79 -58l-30 -93l79 58z"/>
    <glyph glyph-name="Y" unicode="Y" d="M483 251c41 -20 -8 -165 -43 -229s-55 -56 -160 -56s-152 67 -152 67v224l17 1c82 16 105 147 105 177c0 32 54 -4 70 -32c21 -37 8 -88 4 -130c51 1 121 -3 159 -22zM64 257c18 0 32 -14 32 -32v-224c0 -18 -14 -32 -32 -32h-64v288h64zM64 1v32h-32v-32h32z"/>
    <glyph glyph-name="Z" unicode="Z" d="M218 450c105 0 152 -67 152 -67v-224l-17 -1c-82 -16 -105 -148 -105 -178c0 -32 -54 4 -70 32c-21 37 -8 89 -4 131c-51 -1 -121 3 -159 22c-40 20 8 165 43 229s55 56 160 56zM434 447h64v-288h-64c-18 0 -32 14 -32 32v224c0 18 14 32 32 32zM466 383v32h-32v-32h32z "/>
    <glyph glyph-name="one" unicode="1" d="M0 416h181l272 -267l-136 -45l-46 -136l-271 267v181zM136 320c0 22 -18 40 -40 40s-40 -18 -40 -40s18 -40 40 -40s40 18 40 40zM449 195l-252 253h-160v32h181l271 -271z"/>
    <glyph glyph-name="two" unicode="2" d="M209 448l271 -271l-136 -46l-45 -136l-271 272l-1 181h182zM123 312c-22 0 -40 18 -40 40s18 40 40 40s40 -18 40 -40s-18 -40 -40 -40z"/>
    <glyph glyph-name="zero" unicode="0" d="M160 416c0 -35 -29 -64 -64 -64s-64 29 -64 64s29 64 64 64s64 -29 64 -64zM480 416c0 -35 -29 -64 -64 -64s-64 29 -64 64s29 64 64 64s64 -29 64 -64zM320 96c0 -35 -29 -64 -64 -64s-64 29 -64 64s29 64 64 64s64 -29 64 -64zM177 166l-22 -23l-91 90l23 23zM425 256 l23 -23l-90 -90l-23 22zM192 288h-192c0 35 43 64 96 64s96 -29 96 -64zM416 352c53 0 96 -29 96 -64h-192c0 35 43 64 96 64zM256 32c-53 0 -96 -29 -96 -64h192c0 35 -43 64 -96 64z"/>
    <glyph glyph-name="three" unicode="3" d="M0 416c0 38 31 64 64 64v-512c-33 1 -64 33 -64 67v381zM480 352c32 0 32 -35 32 -35v-61h-64v96h32zM448 0v96h64v-65s0 -31 -32 -31h-32zM448 224h64v-96h-64v96zM351 480c33 0 65 -32 65 -67v-381c0 -38 -31 -64 -64 -64h-256v512h255zM352 160c0 0 1 20 -4 28 c-6 9 -25 15 -44 23s-24 11 -24 11v18s7 6 9 23c4 -1 10 7 10 11s-1 15 -6 14c1 9 1 17 1 21c-1 15 -16 30 -38 30s-37 -15 -38 -30c0 -4 0 -12 1 -21c-5 1 -6 -10 -6 -14s4 -12 9 -11c2 -17 10 -23 10 -23v-18s-5 -3 -24 -11s-38 -14 -44 -23c-5 -8 -4 -28 -4 -28h192z M64 -32v0v0z"/>
    <glyph glyph-name="four" unicode="4" d="M256 448h224v-224h-64v115l-123 -123c17 -25 27 -55 27 -88c0 -88 -72 -160 -160 -160s-160 72 -160 160s72 160 160 160c33 0 63 -10 88 -27l123 123h-115v64zM160 32c-53 0 -96 43 -96 96s43 96 96 96s96 -43 96 -96s-43 -96 -96 -96z"/>
    <glyph glyph-name="five" unicode="5" d="M416 320c0 -77 -55 -142 -128 -157v-67h64v-64h-64v-64h-64v64h-64v64h64v67c-73 15 -128 80 -128 157c0 88 72 160 160 160s160 -72 160 -160zM256 224c-53 0 -96 43 -96 96s43 96 96 96s96 -43 96 -96s-43 -96 -96 -96z"/>
    <glyph glyph-name="six" unicode="6" d="M264 102c35 -15 70 -27 81 -44c10 -16 7 -90 7 -90h-352s-3 74 7 90c11 17 46 29 81 44s43 21 43 21l1 35s-14 11 -18 44c-8 -3 -16 13 -17 21s1 30 11 28c-2 16 -3 31 -2 39c3 29 29 58 70 58s67 -30 70 -58c1 -8 -1 -23 -3 -39c10 2 12 -20 11 -28c0 -8 -9 -24 -17 -21 c-4 -33 -17 -44 -17 -44v-35s9 -6 44 -21zM512 384l-79 -54l47 -106l-96 64l-96 -64l47 106l-79 54h96l32 96l32 -96h96z"/>
    <glyph glyph-name="seven" unicode="7" d="M448 480c18 0 32 -14 32 -32v-448c0 -18 -14 -32 -32 -32h-384c-18 0 -32 14 -32 32v64h-16c-9 0 -16 7 -16 16s7 16 16 16h64c9 0 16 7 16 16s-7 16 -16 16h-48v64h-16c-9 0 -16 7 -16 16s7 16 16 16h64c9 0 16 7 16 16s-7 16 -16 16h-48v64h-16c-9 0 -16 7 -16 16 s7 16 16 16h64c9 0 16 7 16 16s-7 16 -16 16h-48v64c0 18 14 32 32 32h384zM384 160h-185s-2 37 3 45c6 9 25 14 43 22s23 10 23 10v18s-7 5 -9 22c-4 -1 -9 6 -9 10s1 15 6 14c-1 8 -2 16 -2 20c1 14 15 29 37 29s36 -15 37 -29c0 -4 0 -12 -1 -20c5 1 6 -10 6 -14 s-5 -11 -9 -10c-2 -17 -9 -22 -9 -22v-18s5 -2 23 -10s36 -13 42 -22c5 -8 4 -45 4 -45z"/>
    <glyph glyph-name="eight" unicode="8" d="M284 419c-99 0 -183 -70 -204 -163l-80 1l109 -175l113 173l-75 1c19 57 73 99 137 99c80 0 146 -66 146 -146s-66 -145 -146 -145c-30 0 -57 9 -80 24l-35 -53c33 -22 72 -35 115 -35c115 0 210 94 210 209s-95 210 -210 210z"/>
    <glyph glyph-name="nine" unicode="9" d="M133 223c13 0 18 -9 11 -20l-59 -90c-7 -11 -18 -10 -25 1l-57 91c-7 11 -2 20 11 20h29c0 106 86 191 192 191c45 0 85 -15 118 -41l-34 -49c-23 19 -52 31 -84 31c-73 0 -133 -59 -133 -132v-1zM467 257l-56 92c-7 11 -19 11 -26 0l-58 -90c-7 -11 -2 -20 11 -20l31 -1 v0c0 -73 -60 -133 -133 -133c-32 0 -62 12 -85 31l-33 -49c33 -26 73 -41 118 -41c106 0 191 86 191 192l29 -1c13 0 18 9 11 20z"/>
    <glyph glyph-name="exclam" unicode="!" d="M384 352c-40 0 -80 -40 -108 -76l20 -26c33 44 66 70 88 70c53 0 96 -43 96 -96s-43 -96 -96 -96c-77 0 -159 224 -256 224c-71 0 -128 -57 -128 -128s57 -128 128 -128c40 0 80 40 108 76l-20 26c-33 -44 -66 -70 -88 -70c-53 0 -96 43 -96 96s43 96 96 96 c77 0 159 -224 256 -224c71 0 128 57 128 128s-57 128 -128 128z"/>
    <glyph glyph-name="quotedbl" unicode="&quot;" d="M448 270c38 -22 64 -63 64 -110c0 -70 -58 -128 -128 -128h-256c-70 0 -128 58 -128 128c0 47 26 88 64 110v2c0 44 36 80 80 80c13 0 25 -4 36 -9c25 43 71 73 124 73c80 0 144 -64 144 -144v-2zM229 96l155 155l-40 40l-115 -115l-60 61l-41 -40 c34 -34 67 -68 101 -101z"/>
    <glyph glyph-name="numbersign" unicode="#" d="M333 178c11 0 20 -8 20 -19v-20c0 -11 -9 -19 -20 -19h-46c-2 -10 -6 -19 -10 -28l34 -34c8 -8 9 -20 1 -28l-14 -14c-8 -8 -20 -8 -28 0l-31 32c-8 -6 -18 -11 -28 -14v-46c0 -11 -9 -20 -20 -20h-19c-11 0 -20 9 -20 20v40c-11 2 -22 6 -32 11l-30 -30 c-8 -8 -19 -8 -27 0l-14 14c-8 8 -8 20 0 28l26 26c-7 10 -11 21 -15 33h-40c-11 0 -19 8 -19 19v20c0 11 8 19 19 19h37c3 12 7 24 13 34l-28 28c-8 8 -8 20 0 28l14 14c8 8 19 8 27 0l28 -28c10 6 20 10 31 13v43c0 11 9 20 20 20h20c11 0 19 -9 19 -20v-43 c10 -3 20 -6 29 -11l33 33c8 8 20 8 28 0l14 -14c8 -8 8 -20 0 -28l-33 -32c5 -8 9 -18 12 -27h49zM172 95c27 0 49 22 49 49s-22 49 -49 49s-49 -22 -49 -49s22 -49 49 -49zM500 390c7 0 13 -6 13 -13v-12c0 -7 -6 -13 -13 -13h-29c-1 -6 -4 -11 -7 -17l22 -22 c5 -5 5 -13 0 -18l-8 -8c-5 -5 -13 -5 -18 0l-20 20c-5 -4 -12 -7 -18 -9v-30c0 -7 -5 -12 -12 -12h-12c-7 0 -13 5 -13 12v26c-7 1 -14 4 -20 7l-19 -19c-5 -5 -13 -5 -18 0l-9 9c-5 5 -5 13 0 18l17 17c-4 6 -8 13 -10 20h-25c-7 0 -12 6 -12 13v12c0 7 5 13 12 13h24 c2 8 4 14 8 21l-18 18c-5 5 -5 13 0 18l9 8c5 5 12 5 17 0l18 -17c6 4 13 6 20 8v28c0 7 5 12 12 12h13c7 0 12 -5 12 -12v-28c7 -2 13 -4 19 -7l21 21c5 5 12 5 17 0l9 -9c5 -5 5 -13 0 -18l-21 -20c3 -5 6 -11 8 -17h31zM398 337c-17 0 -32 14 -32 31s15 31 32 31 s31 -14 31 -31s-14 -31 -31 -31z"/>
    <glyph glyph-name="percent" unicode="%" d="M449 224c0 -12 -2 -24 -4 -36l68 -60l-85 -95l-49 43c-17 -14 -37 -25 -58 -33v-75h-128v75c-21 8 -42 19 -59 33l-48 -43l-85 95l67 60c-2 12 -3 24 -3 36s1 24 3 36l-67 60l85 95l48 -43c17 14 38 25 59 33v75h128v-75c21 -8 41 -19 58 -33l49 43l85 -95l-68 -60 c2 -12 4 -24 4 -36zM257 128c-53 0 -96 43 -96 96s43 96 96 96s96 -43 96 -96s-43 -96 -96 -96z"/>
    <glyph glyph-name="ampersand" unicode="&amp;" d="M289 208c0 26 -22 48 -48 48c-27 0 -48 -22 -48 -48c0 -27 21 -48 48 -48s48 21 48 48zM449 256c18 0 32 -14 32 -32v-32c0 -18 -14 -32 -32 -32h-32c-2 0 -5 0 -7 1c-4 -15 -10 -29 -18 -42c1 -1 2 0 3 -1l22 -23c6 -6 10 -15 10 -23c0 -9 -4 -16 -10 -22l-22 -23 c-13 -13 -33 -13 -46 0l-22 23l-3 3c-12 -6 -24 -11 -37 -15c0 -2 2 -4 2 -6v-32c0 -18 -14 -32 -32 -32h-32c-18 0 -32 14 -32 32v32c0 2 1 4 1 6c-15 4 -30 11 -43 19c-1 -3 -3 -5 -5 -7l-23 -23c-13 -13 -32 -13 -45 0l-23 23c-13 13 -13 32 0 45l23 23c3 2 6 3 9 5 c-7 12 -12 25 -16 38c-2 -1 -4 -1 -6 -1h-32c-18 0 -32 14 -32 32v32c0 18 14 32 32 32h32c2 0 4 -1 6 -1c4 13 9 26 16 38c-3 2 -7 3 -9 5l-23 23c-12 13 -12 33 0 45l23 23c6 6 15 9 23 9s16 -3 22 -9l23 -23c2 -2 4 -4 5 -7c13 8 28 15 43 19c0 2 -1 4 -1 6v32 c0 18 14 32 32 32h32c18 0 32 -14 32 -32v-32c0 -2 -2 -4 -2 -6c13 -4 25 -9 37 -15l3 3l22 23c13 13 33 13 46 0l22 -23c13 -12 13 -32 0 -45l-22 -23c-1 -1 -2 0 -3 -1c8 -13 14 -27 18 -42c2 0 5 1 7 1h32zM129 208c0 62 50 112 112 112s112 -50 112 -112 s-50 -112 -112 -112s-112 50 -112 112z"/>
    <glyph glyph-name="dollar" unicode="$" d="M17 448h448c9 0 16 -7 16 -16v-448c0 -9 -7 -16 -16 -16h-448c-9 0 -16 7 -16 16v448c0 9 7 16 16 16zM417 32v352h-352v-352h352zM113 256c-9 0 -16 7 -16 16s7 16 16 16h16v32h32v-32h16c9 0 16 -7 16 -16s-7 -16 -16 -16h-16v-160h-32v160h-16zM209 160 c-9 0 -16 7 -16 16s7 16 16 16h16v128h32v-128h16c9 0 16 -7 16 -16s-7 -16 -16 -16h-16v-64h-32v64h-16zM305 224h16v-128h32v128h16c9 0 16 7 16 16s-7 16 -16 16h-16v64h-32v-64h-16c-9 0 -16 -7 -16 -16s7 -16 16 -16z"/>
    <glyph glyph-name="quotesingle" unicode="'" d="M256 352c-124 0 -224 29 -224 64s100 64 224 64s224 -29 224 -64s-100 -64 -224 -64zM32 365c64 -43 204 -45 224 -45s160 2 224 45v-77c0 -35 -100 -64 -224 -64s-224 29 -224 64v77zM32 237c64 -43 204 -45 224 -45s160 2 224 45v-77c0 -35 -100 -64 -224 -64 s-224 29 -224 64v77zM32 109v-77c0 -35 100 -64 224 -64s224 29 224 64v77c-64 -43 -204 -45 -224 -45s-160 2 -224 45z"/>
    <glyph glyph-name="parenleft" unicode="(" d="M240 224c-82 0 -157 20 -203 56c-12 10 -22 21 -28 32c-6 10 -9 21 -9 32c0 66 107 120 240 120s240 -54 240 -120c0 -11 -3 -22 -9 -32c-17 -30 -50 -50 -87 -64c-40 -15 -90 -24 -144 -24zM240 160c82 0 157 20 203 56c12 10 22 21 28 32c6 -10 9 -21 9 -32 s-3 -22 -9 -32c-6 -11 -16 -22 -28 -32c-43 -34 -118 -56 -203 -56s-160 22 -203 56c-12 10 -22 21 -28 32c-6 10 -9 21 -9 32s3 22 9 32c17 -31 50 -50 87 -64c40 -15 90 -24 144 -24zM240 32c-110 0 -203 37 -231 88c-6 -10 -9 -21 -9 -32c0 -66 107 -120 240 -120 s240 54 240 120c0 11 -3 22 -9 32c-28 -51 -121 -88 -231 -88z"/>
    <glyph glyph-name="parenright" unicode=")" d="M104 424c13 0 24 -11 24 -24s-11 -24 -24 -24s-24 11 -24 24s11 24 24 24zM168 424c13 0 24 -11 24 -24s-11 -24 -24 -24s-24 11 -24 24s11 24 24 24zM232 424c13 0 24 -11 24 -24s-11 -24 -24 -24s-24 11 -24 24s11 24 24 24zM448 480c35 0 64 -29 64 -64v-224h-32v128 h-448v-288c0 -18 14 -32 32 -32h288v-32h-288c-35 0 -64 29 -64 64v384c0 35 29 64 64 64h384zM480 352v64c0 18 -14 32 -32 32h-384c-18 0 -32 -14 -32 -32v-64h448zM446 128h66v-32h-53l-59 -59l-59 119l-62 -124c-21 32 -43 64 -64 96h-4l-22 -32h-93v32h76l41 61l62 -93 l66 132l68 -137z"/>
    <glyph glyph-name="asterisk" unicode="*" d="M64 352v-320h384v320h-384zM64 416v-32h32v32h-32zM128 416v-32h32v32h-32zM192 416v-32h32v32h-32zM0 -32v512h512v-512h-512zM160 195l-51 -76l-26 18l77 116l62 -93l66 132l68 -137l49 48l22 -22l-79 -80l-60 119l-62 -124z"/>
    <glyph glyph-name="plus" unicode="+" d="M448 480c35 0 64 -29 64 -64v-384c0 -35 -29 -64 -64 -64h-384c-35 0 -64 29 -64 64v384c0 35 29 64 64 64h384zM480 128v32h-98l-37 -37l-68 137l-66 -132l-62 93l-41 -61h-76v-32h93l22 32h4c21 -32 43 -64 64 -96l62 124l59 -119l59 59h85zM480 352v64 c0 18 -14 32 -32 32h-384c-18 0 -32 -14 -32 -32v-64h448zM104 424c13 0 24 -11 24 -24s-11 -24 -24 -24s-24 11 -24 24s11 24 24 24zM168 424c13 0 24 -11 24 -24s-11 -24 -24 -24s-24 11 -24 24s11 24 24 24zM232 424c-13 0 -24 -11 -24 -24s11 -24 24 -24s24 11 24 24 s-11 24 -24 24z"/>
    <glyph glyph-name="comma" unicode="," d="M104 424c13 0 24 -11 24 -24s-11 -24 -24 -24s-24 11 -24 24s11 24 24 24zM168 424c13 0 24 -11 24 -24s-11 -24 -24 -24s-24 11 -24 24s11 24 24 24zM232 424c13 0 24 -11 24 -24s-11 -24 -24 -24s-24 11 -24 24s11 24 24 24zM382 210l128 -228c4 -8 1 -14 -8 -14h-256 c-9 0 -12 6 -8 14l128 228c4 8 12 8 16 0zM390 0v32h-32v-32h32zM390 64v96h-32v-96h32zM448 480c35 0 64 -29 64 -64v-288h-32v192h-448v-288c0 -18 14 -32 32 -32h128v-32h-128c-35 0 -64 29 -64 64v384c0 35 29 64 64 64h384zM480 352v64c0 18 -14 32 -32 32h-384 c-18 0 -32 -14 -32 -32v-64h448z"/>
    <glyph glyph-name="hyphen" unicode="-" d="M510 -18c4 -8 1 -14 -8 -14h-256c-9 0 -12 6 -8 14l128 228c4 8 12 8 16 0zM390 0v32h-32v-32h32zM390 64v96h-32v-96h32zM32 166v-54c2 -13 60 -44 160 -47v-33c-67 2 -126 17 -160 38c-20 12 -32 26 -32 42v288c0 16 12 30 32 42c37 22 102 38 176 38s139 -16 176 -38 c20 -12 32 -26 32 -42v-144h-32v6c-37 -22 -102 -38 -176 -38s-139 16 -176 38v-54c2 -14 66 -48 176 -48c17 0 33 1 48 3v-33c-15 -1 -31 -2 -48 -2c-74 0 -139 16 -176 38zM208 448c-110 0 -174 -34 -176 -48c2 -14 66 -48 176 -48s174 34 176 48c-2 14 -66 48 -176 48z M32 358v-54c2 -14 66 -48 176 -48s174 34 176 48v54c-37 -22 -102 -38 -176 -38s-139 16 -176 38z"/>
    <glyph glyph-name="period" unicode="." d="M357 48l115 115l40 -40l-155 -155l-101 101l41 40zM104 424c13 0 24 -11 24 -24s-11 -24 -24 -24s-24 11 -24 24s11 24 24 24zM168 424c13 0 24 -11 24 -24s-11 -24 -24 -24s-24 11 -24 24s11 24 24 24zM232 424c13 0 24 -11 24 -24s-11 -24 -24 -24s-24 11 -24 24 s11 24 24 24zM448 480c35 0 64 -29 64 -64v-192h-32v96h-448v-288c0 -18 14 -32 32 -32h160v-32h-160c-35 0 -64 29 -64 64v384c0 35 29 64 64 64h384zM480 352v64c0 18 -14 32 -32 32h-384c-18 0 -32 -14 -32 -32v-64h448z"/>
    <glyph glyph-name="slash" unicode="/" d="M368 256c80 0 144 -64 144 -144s-64 -144 -144 -144c-79 0 -144 64 -144 144s65 144 144 144zM345 23l135 135l-34 34l-101 -101l-55 56l-34 -34zM104 424c13 0 24 -11 24 -24s-11 -24 -24 -24s-24 11 -24 24s11 24 24 24zM168 424c13 0 24 -11 24 -24s-11 -24 -24 -24 s-24 11 -24 24s11 24 24 24zM232 424c13 0 24 -11 24 -24s-11 -24 -24 -24s-24 11 -24 24s11 24 24 24zM448 480c35 0 64 -29 64 -64v-192h-32v96h-448v-288c0 -18 14 -32 32 -32h160v-32h-160c-35 0 -64 29 -64 64v384c0 35 29 64 64 64h384zM480 352v64 c0 18 -14 32 -32 32h-384c-18 0 -32 -14 -32 -32v-64h448z"/>
    <glyph glyph-name="colon" unicode=":" d="M368 256c80 0 144 -64 144 -144s-64 -144 -144 -144c-79 0 -144 64 -144 144s65 144 144 144zM345 23l135 135l-34 34l-101 -101l-55 56l-34 -34zM384 442c20 -12 32 -26 32 -42v-112h-32v70c-37 -22 -102 -38 -176 -38s-139 16 -176 38v-54c2 -13 61 -44 160 -47v-33 c-67 2 -126 17 -160 38v-54c2 -13 61 -44 160 -47v-33c-67 2 -126 17 -160 38v-54c2 -13 61 -44 160 -47v-33c-67 2 -126 17 -160 38c-20 12 -32 26 -32 42v288c0 16 12 30 32 42c37 22 102 38 176 38s139 -16 176 -38zM208 352c-110 0 -174 34 -176 48c2 14 66 48 176 48 s174 -34 176 -48c-2 -14 -66 -48 -176 -48z"/>
    <glyph glyph-name="semicolon" unicode=";" d="M64 352v-320h384v320h-384zM64 416v-32h32v32h-32zM128 416v-32h32v32h-32zM192 416v-32h32v32h-32zM0 -32v512h512v-512h-512zM139 149l-22 22l52 53l-52 53l22 22l76 -75zM256 256h96v-32h-96v32z"/>
    <glyph glyph-name="less" unicode="&lt;" d="M448 64v-32h32v32h-32zM64 192v-192h352v192h-352zM128 480v-160h256v160h-256zM0 480h448l64 -64v-448h-512v512zM288 448h64v-96h-64v96zM128 64h224v-32h-224v32zM128 128h160v-32h-160v32z"/>
    <glyph glyph-name="equal" unicode="=" d="M375 117l78 77l-75 74c-3 -11 -8 -20 -16 -28c-25 -25 -65 -25 -90 0s-25 65 0 90c8 8 18 13 28 16l-74 75l-75 -76c-3 9 -8 19 -15 26c-25 25 -66 25 -91 0s-25 -66 0 -91c7 -7 17 -12 26 -15l-71 -71l74 -74c3 11 8 21 16 29c25 25 66 25 91 0s25 -65 0 -90 c-8 -8 -18 -14 -29 -17l74 -74l73 73c2 -12 9 -23 18 -32c25 -25 65 -25 90 0s25 65 0 90c-9 9 -20 16 -32 18z"/>
    <glyph glyph-name="greater" unicode="&gt;" d="M400 224h-18c-1 -10 -1 -21 -2 -32h20c28 0 80 -17 80 -80v-32c0 -9 -7 -16 -16 -16s-16 7 -16 16v32c0 45 -41 48 -49 48h-23c-4 -28 -11 -57 -22 -82c28 -6 62 -27 62 -78h-1l1 -4v-12c0 -9 -7 -16 -16 -16s-16 7 -16 16v12l1 4h-1c0 42 -34 47 -46 48 c-19 -29 -45 -48 -82 -48v-16c0 -9 -7 -16 -16 -16s-16 7 -16 16v16c-37 0 -63 19 -82 48c-12 -1 -46 -6 -46 -48h-1l1 -4v-12c0 -9 -7 -16 -16 -16s-16 7 -16 16v12l1 4h-1c0 51 34 72 62 78c-11 25 -18 54 -22 82h-23c-8 0 -49 -3 -49 -48v-32c0 -9 -7 -16 -16 -16 s-16 7 -16 16v32c0 63 52 80 80 80h20c-1 11 -1 22 -2 32h-18c-28 0 -80 17 -80 80v32c0 9 7 16 16 16s16 -7 16 -16v-32c0 -45 41 -48 49 -48h15v4v28h288v-32h15c8 0 49 3 49 48v32c0 9 7 16 16 16s16 -7 16 -16v-32c0 -63 -52 -80 -80 -80zM256 64v192h-32v-192h32z M352 352v-32h-224v32c0 53 43 96 96 96h32c53 0 96 -43 96 -96zM224 384v32h-32v-32h32zM288 384v32h-32v-32h32z"/>
    <glyph glyph-name="question" unicode="?" d="M352 64v-32h32v32h-32zM416 64v-32h32v32h-32zM352 128v-32h32v32h-32zM416 128v-32h32v32h-32zM352 192v-32h32v32h-32zM416 192v-32h32v32h-32zM352 256v-32h32v32h-32zM416 256v-32h32v32h-32zM320 -32v352h160v-352h-160zM64 64v-32h32v32h-32zM128 64v-32h32v32h-32 zM192 64v-32h32v32h-32zM64 128v-32h32v32h-32zM128 128v-32h32v32h-32zM192 128v-32h32v32h-32zM64 192v-32h32v32h-32zM128 192v-32h32v32h-32zM192 192v-32h32v32h-32zM96 288v-32h32v32h-32zM160 288v-32h32v32h-32zM96 352v-32h32v32h-32zM160 352v-32h32v32h-32z M128 480h32v-64h32l32 -64v-96h32l32 -32v-256h-288v256l32 32h32v96l32 64h32v64z"/>
    <glyph glyph-name="at" unicode="@" d="M256 384c-27 0 -48 22 -48 48s21 48 48 48c26 0 48 -22 48 -48s-22 -48 -48 -48zM224 32l-19 160h-45v138c19 11 45 19 75 21h42c30 -2 56 -10 75 -21v-138h-45l-19 -160h-64zM331 124l-4 -32c81 -9 112 -32 121 -44c-12 -15 -56 -48 -192 -48s-180 33 -192 48 c9 12 40 35 121 44l-4 32c-105 -10 -181 -40 -181 -76c0 -44 115 -80 256 -80s256 36 256 80c0 36 -76 66 -181 76z"/>
    <glyph glyph-name="bracketleft" unicode="[" d="M240 480c70 0 176 -32 176 -160c0 -64 -141 -288 -176 -352c-35 64 -176 288 -176 352c0 128 106 160 176 160zM240 264c-31 0 -56 25 -56 56s25 56 56 56s56 -25 56 -56s-25 -56 -56 -56z"/>
    <glyph glyph-name="bracketright" unicode="]" d="M240 446c79 0 144 -65 144 -144c0 -48 -128 -304 -128 -304h-32s-128 256 -128 304c0 79 65 144 144 144zM318 286c-7 -37 -39 -64 -78 -64c-43 0 -80 33 -80 80c0 44 36 80 80 80s80 -36 80 -80c0 -5 -1 -11 -2 -16z"/>
    <glyph glyph-name="asciicircum" unicode="^" d="M288 427v-352l-16 7l-128 -61l-144 69v388l144 -70l128 62l144 -69v-147c-11 0 -22 -2 -32 -5v132zM128 64v317l-96 46v-317zM256 110v317l-96 -46v-317zM416 222c53 0 96 -43 96 -96c0 -36 -20 -68 -50 -84l-46 -76l-46 76c-30 16 -50 48 -50 84c0 53 43 96 96 96z M416 94c-18 0 -32 14 -32 32s14 32 32 32s32 -14 32 -32s-14 -32 -32 -32z"/>
    <glyph glyph-name="underscore" unicode="_" d="M448 256v-224l64 -64h-512l64 64v224h-16c-9 0 -16 7 -16 16v16h448v-16c0 -9 -7 -16 -16 -16h-16zM96 256v-224h64v224h-64zM224 256v-224h64v224h-64zM352 256v-224h64v224h-64zM512 320h-512l256 160z"/>
    <glyph glyph-name="grave" unicode="`" d="M101 225v-221h82v135h128v-135h83v221l-147 111zM0 233l247 188l94 -71v64h64v-113l90 -68l-39 -51l-27 20v-234h-363v234l-27 -20z"/>
    <glyph glyph-name="braceleft" unicode="{" d="M176 160v-160h128v160h-128zM0 233l246 188l90 -71v66h64v-115l93 -68l-35 -51l-26 20v-234h-352v234l-34 -20z"/>
    <glyph glyph-name="bar" unicode="|" d="M32 62v-32h32v32h-32zM96 62v-32h32v32h-32zM160 62v-32h32v32h-32zM288 62v-32h32v32h-32zM384 62v-32h32v32h-32zM448 62v-32h32v32h-32zM32 126v-32h32v32h-32zM96 126v-32h32v32h-32zM160 126v-32h32v32h-32zM288 126v-32h32v32h-32zM384 126v-32h32v32h-32zM448 126 v-32h32v32h-32zM32 190v-32h32v32h-32zM96 190v-32h32v32h-32zM160 190v-32h32v32h-32zM288 190v-32h32v32h-32zM384 190v-32h32v32h-32zM448 190v-32h32v32h-32zM32 254v-32h32v32h-32zM96 254v-32h32v32h-32zM160 254v-32h32v32h-32zM384 254v-32h32v32h-32zM448 254v-32 h32v32h-32zM64 318v-32h32v32h-32zM128 318v-32h32v32h-32zM416 318v-32h32v32h-32zM64 382v-32h32v32h-32zM128 382v-32h32v32h-32zM96 478h32v-64h64v-128h32v-64h129v64h31v64h96v-64h32v-318h-512v318h32v128h64v64z"/>
    <glyph glyph-name="braceright" unicode="}" d="M224 480h64v-64h160l64 -64l-64 -64h-160v-32h128v-128h-128v-160h-64v160h-160l-64 64l64 64h160v32h-128v128h128v64z"/>
    <glyph glyph-name="asciitilde" unicode="~" d="M132 96v-64h64v64h-64zM228 96v-96h64v96h-64zM324 96v-64h64v64h-64zM132 192v-64h64v64h-64zM228 192v-64h64v64h-64zM324 192v-64h64v64h-64zM132 288v-64h64v64h-64zM228 288v-64h64v64h-64zM324 288v-64h64v64h-64zM132 352v-32h64v32h-64zM228 352v-32h64v32h-64z M324 352v-32h64v32h-64zM260 480l192 -96h32v-32h-32v-352h60v-32h-508v32h64v352h-32v32h32z"/>
    <glyph glyph-name="backslash" unicode="\" d="M64 96v-32h64v32h-64zM192 96v-32h64v32h-64zM320 96v-32h64v32h-64zM64 160v-32h64v32h-64zM192 160v-32h64v32h-64zM320 160v-32h64v32h-64zM416 480h64l32 -256v-256h-512v352l128 -96v96l128 -96v96l128 -96z"/>
    <glyph glyph-name="glyph94" unicode="&#57344;" d="M256 480l128 -128h-64l128 -128h-96l160 -160h-192v-96h-128v96h-192l160 160h-96l128 128h-64z"/>
    <glyph glyph-name="glyph95" unicode="&#57345;" d="M32 448h352l-64 -192h-288c-18 0 -32 14 -32 32v128c0 18 14 32 32 32zM288 352v32h-32v-32h32zM416 416h64l-38 -128h-64zM160 224h64v-224h-160c0 -18 -14 -32 -32 -32s-32 14 -32 32v64c0 18 14 32 32 32s32 -14 32 -32h96v160z"/>
    <glyph glyph-name="glyph96" unicode="&#57346;" d="M496 128c9 0 16 -7 16 -16s-7 -16 -16 -16h-16v-96h-64v96h-32v-64h-32v64h-192v-64h-32v64h-32v-96h-64v96h-16c-9 0 -16 7 -16 16s7 16 16 16h480zM16 160c-9 0 -16 7 -16 16s7 16 16 16h480c9 0 16 -7 16 -16s-7 -16 -16 -16h-480zM80 256h16v32h-48 c-9 0 -16 7 -16 16s7 16 16 16h48v32h-48c-9 0 -16 7 -16 16s7 16 16 16h48v32h-48c-9 0 -16 7 -16 16s7 16 16 16h416c9 0 16 -7 16 -16s-7 -16 -16 -16h-48v-32h48c9 0 16 -7 16 -16s-7 -16 -16 -16h-48v-32h48c9 0 16 -7 16 -16s-7 -16 -16 -16h-48v-32h16 c9 0 21 -5 27 -11l10 -10c6 -6 4 -11 -5 -11h-432l21 21c6 6 18 11 27 11zM128 416v-32h256v32h-256zM128 352v-32h256v32h-256zM128 288v-32h256v32h-256z"/>
    <glyph glyph-name="glyph97" unicode="&#57347;" d="M480 64c18 0 32 -14 32 -32v-32h-511v32c0 18 14 32 32 32h58l141 355c14 35 37 35 51 0l141 -355h56zM239 352l-25 -64h86l-25 64h-36zM164 160h186l-25 64h-136z"/>
    <glyph glyph-name="glyph98" unicode="&#57348;" d="M480 256c18 0 32 -14 32 -32v-96c0 -18 -14 -32 -32 -32h-32v-32h-32v32h-320v-32h-32v32h-64v128c0 18 14 32 32 32s32 -14 32 -32v-32h384v32c0 18 14 32 32 32zM416 288v-64h-64v160h96c18 0 32 -14 32 -32v-64h-64zM96 224v64h-64v64c0 18 14 32 32 32h96v-160h-64z M192 384h128v-160h-128v160z"/>
    <glyph glyph-name="glyph99" unicode="&#57349;" d="M432 288h-16v-160h48c9 0 16 -7 16 -16v-96c0 -9 -7 -16 -16 -16h-224c-9 0 -16 7 -16 16v96c0 9 7 16 16 16h80v96h-13c-9 0 -16 7 -16 16v28c-20 12 -51 20 -99 20h-16c-9 0 -16 7 -16 16v16h-80c-9 0 -16 7 -16 16v16h-64v32h64v16c0 9 7 16 16 16h80v16 c0 9 7 16 16 16h256c44 0 80 -36 80 -80s-36 -80 -80 -80zM432 96h-176v-64h32v32h144c9 0 16 7 16 16s-7 16 -16 16zM192 416v-64h32v32h208c9 0 16 7 16 16s-7 16 -16 16h-240z"/>
    <glyph glyph-name="glyph100" unicode="&#57350;" d="M430 152c-14 -4 -28 -6 -42 -4c12 -7 23 -16 32 -28c31 -43 22 -103 -21 -134s-103 -21 -134 22c-9 12 -14 24 -17 38c-3 -14 -7 -26 -16 -38c-31 -43 -91 -53 -134 -22s-53 91 -22 134c9 12 20 21 32 28c-14 -2 -28 -1 -42 4c-50 16 -77 71 -61 121s71 77 121 61 c14 -5 26 -12 36 -21c-6 12 -10 25 -10 40c0 53 43 96 96 96s96 -43 96 -96c0 -15 -3 -28 -9 -40c10 9 22 16 36 21c50 16 105 -11 121 -61s-12 -105 -62 -121zM248 97c-53 0 -96 43 -96 96s43 96 96 96s96 -43 96 -96s-43 -96 -96 -96z"/>
    <glyph glyph-name="glyph101" unicode="&#57351;" d="M480 384h32v-96h-32v-32h-119c-11 -32 -21 -64 -32 -96h-142l-22 -103c-3 -15 -16 -25 -31 -25h-93c-19 0 -36 19 -31 40l45 184h-39c-9 0 -16 7 -16 16v112c0 18 14 32 32 32h64v-32h352v32h16c9 0 16 -7 16 -16v-16zM160 320v32h-64v-32h64zM306 192l22 64h-113 l-18 -64h109z"/>
    <glyph glyph-name="glyph102" unicode="&#57352;" d="M417 186c-10 -13 -24 -24 -33 -25v-33h78c18 0 24 -12 13 -26l-58 -76c-10 -13 -24 -24 -33 -25v-1c0 -18 -14 -32 -32 -32h-192c-18 0 -32 14 -32 32v1c-9 1 -23 12 -33 25l-58 76c-11 14 -5 26 13 26h78v33c-9 1 -23 12 -33 25l-58 76c-11 14 -5 26 13 26h78v33 c-9 1 -23 12 -33 25l-58 76c-11 14 -5 26 13 26h78c0 18 14 32 32 32h192c18 0 32 -14 32 -32h78c18 0 24 -12 13 -26l-58 -76c-10 -13 -24 -24 -33 -25v-33h78c18 0 24 -12 13 -26zM258 0c35 0 64 29 64 64s-29 64 -64 64s-64 -29 -64 -64s29 -64 64 -64zM258 160 c35 0 64 29 64 64s-29 64 -64 64s-64 -29 -64 -64s29 -64 64 -64zM258 320c-35 0 -64 29 -64 64s29 64 64 64s64 -29 64 -64s-29 -64 -64 -64z"/>
    <glyph glyph-name="glyph103" unicode="&#57353;" d="M485 124c45 -90 0 -136 0 -136s-46 -45 -136 0l-91 91l46 45l-184 183c-4 -1 -7 -2 -11 -2h-64c-8 0 -16 3 -22 9l-14 13c-13 13 -13 33 0 46l91 90c6 6 14 10 22 10s17 -4 23 -10l13 -13c6 -6 10 -15 10 -23v-64c0 -4 -1 -7 -2 -11l183 -183l45 45zM136 363v64l-14 14 l-90 -91l13 -13h64z"/>
    <glyph glyph-name="glyph104" unicode="&#57354;" d="M112 96c9 0 16 -7 16 -16v-64c0 -9 -7 -16 -16 -16h-96c-9 0 -16 7 -16 16v64c0 9 7 16 16 16h96zM304 96c9 0 16 -7 16 -16v-64c0 -9 -7 -16 -16 -16h-96c-9 0 -16 7 -16 16v64c0 9 7 16 16 16h96zM80 160c-9 0 -16 7 -16 16v64c0 9 7 16 16 16h128c9 0 16 -7 16 -16 v-64c0 -9 -7 -16 -16 -16h-128zM288 240c0 9 7 16 16 16h128c9 0 16 -7 16 -16v-64c0 -9 -7 -16 -16 -16h-128c-9 0 -16 7 -16 16v64zM176 320c-9 0 -16 7 -16 16v64c0 9 7 16 16 16h160c9 0 16 -7 16 -16v-64c0 -9 -7 -16 -16 -16h-160zM496 96h-96c-9 0 -16 -7 -16 -16 v-64c0 -9 7 -16 16 -16h96c9 0 16 7 16 16v64c0 9 -7 16 -16 16z"/>
    <glyph glyph-name="glyph105" unicode="&#57355;" d="M132 394c6 -6 6 -17 0 -23s-17 -6 -23 0l-23 23c-6 6 -6 16 0 22s17 6 23 0zM48 256c9 0 16 -7 16 -16s-7 -16 -16 -16h-32c-9 0 -16 7 -16 16s7 16 16 16h32zM496 224c9 0 16 -7 16 -16s-7 -16 -16 -16h-32c-9 0 -16 7 -16 16s7 16 16 16h32zM448 394c6 -6 6 -17 0 -23 l-22 -23c-6 -6 -17 -6 -23 0s-6 17 0 23l23 23c6 6 16 6 22 0zM288 432c0 -9 -7 -16 -16 -16s-16 7 -16 16v32l1 6c2 6 8 10 15 10c9 0 16 -7 16 -16v-32zM256 352c71 0 128 -57 128 -128c0 -47 -26 -88 -64 -110v-50h-128v50c-38 22 -64 63 -64 110c0 71 57 128 128 128z M304 141c30 18 48 49 48 83c0 53 -43 96 -96 96s-96 -43 -96 -96c0 -34 18 -65 48 -83l16 -9v-36h64v36zM192 0v32h128v-32h-33l1 -4c0 -15 -14 -28 -32 -28s-32 13 -32 28l1 4h-33z"/>
    <glyph glyph-name="glyph106" unicode="&#57356;" d="M256 480c141 0 256 -115 256 -256s-115 -256 -256 -256s-256 115 -256 256s115 256 256 256zM343 430c-55 23 -119 23 -174 0l25 -59c39 17 85 17 124 0zM109 162c-8 20 -13 40 -13 62s5 42 13 62l-59 25c-12 -28 -18 -57 -18 -87s6 -59 18 -87zM256 0c30 0 59 6 87 18 l-25 59c-39 -17 -85 -17 -124 0l-25 -59c28 -12 57 -18 87 -18zM256 96c71 0 128 57 128 128s-57 128 -128 128s-128 -57 -128 -128s57 -128 128 -128zM403 162l59 -25c12 28 18 57 18 87s-6 59 -18 87l-59 -25c8 -20 13 -40 13 -62s-5 -42 -13 -62z"/>
    <glyph glyph-name="glyph107" unicode="&#57357;" d="M0 480h480v-32h-480v32zM224 416v-128h-192v128h192zM160 352v32h-64v-32h64zM256 288v128h192v-128h-192zM320 384v-32h64v32h-64zM32 128v128h192v-128h-192zM96 224v-32h64v32h-64zM32 -16v112h416v-112c0 -9 -7 -16 -16 -16h-32c-9 0 -16 7 -16 16v32 c0 9 -7 16 -16 16h-256c-9 0 -16 -7 -16 -16v-32c0 -9 -7 -16 -16 -16h-32c-9 0 -16 7 -16 16zM256 128v128h192v-128h-192zM320 224v-32h64v32h-64z"/>
    <glyph glyph-name="glyph108" unicode="&#57358;" d="M22 112c-13 4 -22 16 -22 30v13c0 20 20 38 42 31l182 -58l-140 -35zM490 46c13 -4 22 -17 22 -31v-13c0 -20 -20 -37 -42 -30l-127 40l142 35zM480 158c18 0 32 -15 32 -32v-14c0 -15 -10 -27 -24 -31l-448 -112l-8 -1c-18 0 -32 15 -32 32v14c0 15 10 27 24 31l448 112 zM176 224c-61 135 112 170 96 256c91 -83 135 -204 84 -278c-51 -75 -153 -39 -180 22zM230 256c14 15 49 33 53 97c76 -51 42 -173 -14 -163c-57 10 -53 51 -39 66z"/>
    <glyph glyph-name="glyph109" unicode="&#57359;" d="M64 352v-288h384v288h-384zM0 0v416h512v-416h-512zM184 232c-27 0 -48 21 -48 48c0 26 21 48 48 48c26 0 48 -22 48 -48c0 -27 -22 -48 -48 -48zM416 212v-116h-320l40 48s15 16 45 0c18 32 75 53 75 53l41 -42l68 149z"/>
    <glyph glyph-name="glyph110" unicode="&#57360;" d="M189 78c-16 -8 -29 0 -29 18v160c0 18 13 26 29 18l166 -84c16 -8 16 -20 0 -28zM464 480c26 0 48 -22 48 -48v-416c0 -26 -22 -48 -48 -48h-416c-26 0 -48 22 -48 48v416c0 26 22 48 48 48h416zM320 448h-64l32 -64h64zM192 448h-64l32 -64h64zM32 432v-48h64l-32 64 h-16c-9 0 -16 -7 -16 -16zM480 16v336h-448v-336c0 -9 7 -16 16 -16h416c9 0 16 7 16 16zM416 384h64l-32 64h-64z"/>
    <glyph glyph-name="glyph111" unicode="&#57361;" d="M448 448c18 0 32 -14 32 -32v-384c0 -18 -14 -32 -32 -32h-416c-18 0 -32 14 -32 32v384c0 18 14 32 32 32h416zM256 416v-32h64v32h-64zM160 416v-32h64v32h-64zM64 416v-32h64v32h-64zM128 32v32h-64v-32h64zM224 32v32h-64v-32h64zM320 32v32h-64v-32h64zM416 32v32 h-64v-32h64zM416 96v256h-352v-256h352zM416 384v32h-64v-32h64zM160 320l192 -96l-192 -96v192z"/>
    <glyph glyph-name="glyph112" unicode="&#57362;" d="M254 392c99 0 190 -41 255 -106l-32 -32c-57 57 -136 93 -223 93s-165 -36 -222 -93l-32 32c65 65 155 106 254 106zM64 223c49 49 116 79 190 79c75 0 142 -30 191 -79l-32 -32c-41 41 -97 66 -159 66s-118 -25 -159 -66zM127 159c33 33 77 53 127 53s95 -20 128 -53 l-32 -32c-24 24 -59 40 -96 40s-71 -16 -95 -40zM191 96l63 -64l64 64c-16 16 -39 26 -64 26s-47 -10 -63 -26z"/>
    <glyph glyph-name="glyph113" unicode="&#57363;" d="M128 480h256l128 -128h-512zM32 32v-32h32v32h-32zM96 32v-32h32v32h-32zM160 32v-32h32v32h-32zM224 32v-32h32v32h-32zM448 32v-32h32v32h-32zM0 -32v96h512v-96h-512zM32 160v-32h32v32h-32zM96 160v-32h32v32h-32zM160 160v-32h32v32h-32zM224 160v-32h32v32h-32z M448 160v-32h32v32h-32zM0 96v96h512v-96h-512zM32 288v-32h32v32h-32zM96 288v-32h32v32h-32zM160 288v-32h32v32h-32zM224 288v-32h32v32h-32zM448 288v-32h32v32h-32zM0 224v96h512v-96h-512z"/>
    <glyph glyph-name="glyph114" unicode="&#57364;" d="M128 480h256l128 -128h-512zM32 160v-32h32v32h-32zM96 160v-32h32v32h-32zM160 160v-32h32v32h-32zM224 160v-32h32v32h-32zM448 160v-32h32v32h-32zM0 192h512v-96h-224v-64h160v-64h-384v64h160v64h-224v96zM32 288v-32h32v32h-32zM96 288v-32h32v32h-32zM160 288v-32 h32v32h-32zM224 288v-32h32v32h-32zM448 288v-32h32v32h-32zM0 224v96h512v-96h-512zM0 32h32v-64h-32v64zM480 32h32v-64h-32v64z"/>
    <glyph glyph-name="glyph115" unicode="&#57365;" d="M0 480h301l147 -147v-109h-64v83l-109 109h-211v-384h192v-64h-256v512zM352 160v-32h64v32h-64zM320 192h128v-64h32v-160h-192v160h32v64z"/>
    <glyph glyph-name="glyph116" unicode="&#57366;" d="M343 448l105 -105v-215h-64v-64h-64v-64h-256v320h64v64h64v64h151zM352 393v-41h41zM288 32v32h-160v224h-32v-256h192zM352 96v32h-160v224h-32v-256h192zM416 160v160h-96v96h-96v-256h192z"/>
    <glyph glyph-name="glyph117" unicode="&#57367;" d="M144 256c79 0 144 -64 144 -144s-65 -144 -144 -144c-80 0 -144 64 -144 144s64 144 144 144zM121 23l135 135l-34 34l-101 -101l-55 56l-34 -34zM352 480l160 -160v-352h-224v32h192v288h-160v160h-224v-160h-32v192h288zM352 320h115l-115 115v-115z"/>
    <glyph glyph-name="glyph118" unicode="&#57368;" d="M96 416v-384h320v275l-109 109h-211zM32 480h301l147 -147v-365h-448v512zM160 256h192v-32h-192v32zM160 320h128v-32h-128v32zM160 192h192v-32h-192v32zM160 128h192v-32h-192v32z"/>
    <glyph glyph-name="glyph119" unicode="&#57369;" d="M96 320h224v-32h-224v32zM96 256h224v-32h-224v32zM96 192h288v-32h-288v32zM96 128h288v-32h-288v32zM384 425v-41h41zM64 448v-448h384v352h-96v96h-288zM32 480h343l105 -105v-407h-448v512z"/>
    <glyph glyph-name="glyph120" unicode="&#57370;" d="M224 96c46 49 93 99 139 148c47 -49 94 -98 140 -148h-55v-128h-160v128h-64zM0 480h301l147 -147v-90l-173 173h-211v-384h160v-64h-224v512z"/>
    <glyph glyph-name="glyph121" unicode="&#57371;" d="M472 384c22 0 40 -18 40 -40v-152h-32v152c0 4 -4 8 -8 8h-229l-64 64h-139c-4 0 -8 -4 -8 -8v-336c0 -4 4 -8 8 -8h216v-32h-216c-22 0 -40 18 -40 40v336c0 22 18 40 40 40h152l64 -64h216zM384 224l128 -128h-64v-128h-128v128h-64z"/>
    <glyph glyph-name="glyph122" unicode="&#57372;" d="M32 0h32v-32h-32v32zM32 64h32v-32h-32v32zM32 128h32v-32h-32v32zM32 192h32v-32h-32v32zM32 256h32v-32h-32v32zM416 64h32v-32h-32v32zM416 128h32v-32h-32v32zM416 192h32v-32h-32v32zM416 256h32v-32h-32v32zM32 320h32v-32h-32v32zM32 384h32v-32h-32v32zM32 448 h32v-32h-32v32zM96 448h32v-32h-32v32zM160 448h32v-32h-32v32zM224 448h32v-32h-32v32zM288 448h32v-32h-32v32zM352 384h32v-32h-32v32zM96 0h32v-32h-32v32zM160 0h32v-32h-32v32zM224 0h32v-32h-32v32zM288 0h32v-32h-32v32zM352 0h32v-32h-32v32zM416 320h32v-32h-32 v32zM416 0h32v-32h-32v32z"/>
    <glyph glyph-name="glyph123" unicode="&#57373;" d="M0 32h32v-32h-32v32zM0 96h32v-32h-32v32zM0 160h32v-32h-32v32zM0 224h32v-32h-32v32zM0 288h32v-32h-32v32zM0 352h32v-32h-32v32zM0 416h32v-32h-32v32zM64 416h32v-32h-32v32zM128 416h32v-32h-32v32zM448 96h32v-32h-32v32zM448 160h32v-32h-32v32zM448 224h32v-32 h-32v32zM448 288h32v-32h-32v32zM64 32h32v-32h-32v32zM128 32h32v-32h-32v32zM192 32h32v-32h-32v32zM256 32h32v-32h-32v32zM320 32h32v-32h-32v32zM384 32h32v-32h-32v32zM448 32h32v-32h-32v32zM192 384h32v-32h-32v32zM256 352h32v-32h-32v32zM320 352h32v-32h-32v32z M384 352h32v-32h-32v32zM448 352h32v-32h-32v32z"/>
    <glyph glyph-name="glyph124" unicode="&#57374;" d="M512 128h-64v-30v0c3 -44 27 -73 63 -95v-35c-54 26 -92 68 -95 130v0v30h-32v-160h-32v160h-31v-160h-32v160h-32v-160h-32v160h-32v-160h-32v160h-33v-30v0c-3 -62 -41 -104 -95 -130v35c36 22 60 51 63 95v0v30h-96v96h96v224h247l105 -105v-119h64v-96zM352 393v-41 h41zM128 416v-192h288v96h-96v96h-192zM32 192v-32h448v32h-448z"/>
    <glyph glyph-name="glyph125" unicode="&#57375;" d="M472 384c22 0 40 -18 40 -40v-120h-32v120c0 4 -4 8 -8 8h-229l-64 64h-139c-4 0 -8 -4 -8 -8v-336c0 -4 4 -8 8 -8h184v-32h-184c-22 0 -40 18 -40 40v336c0 22 18 40 40 40h152l64 -64h216zM357 48l113 113l37 -37l-155 -156l-94 94l42 43z"/>
    <glyph glyph-name="glyph126" unicode="&#57376;" d="M368 256c79 0 144 -64 144 -144s-65 -144 -144 -144c-80 0 -144 64 -144 144s64 144 144 144zM345 23l135 135l-34 34l-101 -101l-55 56l-34 -34c30 -30 59 -60 89 -90zM472 384h-216l-64 64h-152c-22 0 -40 -18 -40 -40v-336c0 -22 18 -40 40 -40h152v32h-152 c-4 0 -8 4 -8 8v336c0 4 4 8 8 8h139l64 -64h229c4 0 8 -4 8 -8v-88h32v88c0 22 -18 40 -40 40z"/>
    <glyph glyph-name="glyph127" unicode="&#57377;" d="M472 384c22 0 40 -18 40 -40v-88h-32v88c0 4 -4 8 -8 8h-229l-64 64h-139c-4 0 -8 -4 -8 -8v-336c0 -4 4 -8 8 -8h152v-32h-152c-22 0 -40 18 -40 40v336c0 22 18 40 40 40h152l64 -64h216zM368 256c47 0 88 -25 112 -55c20 -25 32 -55 32 -89c0 -80 -65 -144 -144 -144 c-47 0 -88 25 -112 55c-20 25 -32 55 -32 89c0 80 64 144 144 144zM256 112c0 -25 9 -48 23 -67l156 156c-19 14 -42 23 -67 23c-62 0 -112 -50 -112 -112zM368 0c-25 0 -48 9 -67 23l156 156c14 -19 23 -42 23 -67c0 -62 -50 -112 -112 -112z"/>
    <glyph glyph-name="glyph128" unicode="&#57378;" d="M472 384c22 0 40 -18 40 -40v-88h-32v88c0 4 -4 8 -8 8h-229l-64 64h-139c-4 0 -8 -4 -8 -8v-336c0 -4 4 -8 8 -8h152v-32h-152c-22 0 -40 18 -40 40v336c0 22 18 40 40 40h152l64 -64h216zM368 256c79 0 144 -64 144 -144s-65 -144 -144 -144c-80 0 -144 64 -144 144 s64 144 144 144zM448 96v32h-160v-32h160z"/>
    <glyph glyph-name="glyph129" unicode="&#57379;" d="M256 384c192 0 256 -160 256 -160s-64 -160 -256 -160s-256 160 -256 160s64 160 256 160zM256 96c140 0 203 94 221 128c-18 34 -81 128 -221 128s-203 -94 -221 -128c18 -34 81 -128 221 -128zM256 224l68 68c17 -17 28 -41 28 -68c0 -53 -43 -96 -96 -96 s-96 43 -96 96s43 96 96 96v-96z"/>
    <glyph glyph-name="glyph130" unicode="&#57380;" d="M0 249c131 184 412 163 512 -40l-2 -19c-131 -184 -412 -163 -512 40zM251 104c64 -5 120 42 125 106s-43 120 -107 125s-120 -42 -125 -106s43 -120 107 -125zM260 278c-32 0 -58 -26 -58 -58s26 -59 58 -59s58 27 58 59s-26 58 -58 58z"/>
    <glyph glyph-name="glyph131" unicode="&#57381;" d="M0 -32c7 52 15 105 22 157l135 -135c-52 -8 -105 -15 -157 -22zM179 58l202 202l22 -22l-224 -225l-134 135l224 224l22 -22l-202 -202l23 -23l202 202l45 -45l-202 -202zM473 348l-90 90c-14 14 -36 12 -46 -2v0l-43 -43l134 -134l43 43v0l3 2c12 12 11 32 -1 44z"/>
    <glyph glyph-name="glyph132" unicode="&#57382;" d="M0 -32v128l128 -128h-128zM259 408l46 -45l-217 -217l-46 46zM110 124l217 217l46 -46l-217 -217zM224 10l-46 46l217 217l45 -46zM493 371l-90 90c-25 25 -66 25 -91 0l-22 -22l181 -181l22 22c12 12 19 28 19 45s-7 34 -19 46z"/>
    <glyph glyph-name="glyph133" unicode="&#57383;" d="M352 32v256h64v-304c0 -9 -7 -16 -16 -16h-320c-9 0 -16 7 -16 16v304h64v-256h32v256h64v-256h32v256h64v-256h32zM448 416c18 0 32 -14 32 -32v-32c0 -18 -14 -32 -32 -32h-416c-18 0 -32 14 -32 32v32c0 18 14 32 32 32h128v48c0 9 7 16 16 16h128c9 0 16 -7 16 -16 v-48h128zM192 448v-32h96v32h-96z"/>
    <glyph glyph-name="glyph134" unicode="&#57384;" d="M111 -22c-21 0 -41 12 -60 30s-97 83 0 172c40 37 89 90 143 144c29 29 60 59 90 89c55 55 95 42 157 -17c73 -70 87 -138 55 -175c-42 -48 -201 -207 -208 -214c-9 -9 -23 -9 -32 0s-9 23 0 32c2 2 164 165 205 212c9 11 12 52 -51 112c-36 34 -47 64 -93 18l-90 -90 c-54 -54 -105 -104 -143 -142c-62 -62 -19 -91 2 -112c17 -17 30 -21 55 4c50 50 172 164 199 198c6 7 14 25 6 32c-11 10 -32 -10 -38 -16c-64 -68 -149 -149 -150 -150c-9 -9 -23 -8 -32 1s-8 23 1 32c1 1 84 81 148 148c41 43 79 39 101 20c27 -23 20 -70 -1 -96 c-19 -23 -91 -94 -163 -164c-18 -17 -32 -31 -39 -38c-20 -20 -41 -30 -62 -30z"/>
    <glyph glyph-name="glyph135" unicode="&#57385;" d="M240 447c-62 0 -112 -50 -112 -112v-208c0 -9 7 -16 16 -16s16 7 16 16v208c0 44 36 80 80 80s80 -36 80 -80v-288c0 -26 -22 -48 -48 -48s-48 22 -48 48v256c0 9 7 16 16 16s16 -7 16 -16v-192c0 -9 16 -16 16 -16c9 0 16 7 16 16v192c0 26 -22 48 -48 48 s-48 -22 -48 -48v-256c0 -44 36 -80 80 -80s80 36 80 80v288c0 62 -50 112 -112 112z"/>
    <glyph glyph-name="glyph136" unicode="&#57386;" d="M416 160c18 0 32 -14 32 -32v-128c0 -18 -14 -32 -32 -32h-211c-18 0 -41 11 -52 25l-57 69c-11 14 -8 34 6 45s34 8 45 -6l45 -54v273c0 18 14 32 32 32s32 -14 32 -32v-116c5 12 16 20 30 20c18 0 34 -16 34 -34v-18c5 12 16 20 30 20c18 0 34 -16 34 -34v-30 c0 18 14 32 32 32zM234 416c-9 0 -16 7 -16 16v32c0 9 7 16 16 16s16 -7 16 -16v-32c0 -9 -7 -16 -16 -16zM154 336c0 -9 -7 -16 -16 -16h-64c-9 0 -16 7 -16 16s7 16 16 16h64c9 0 16 -7 16 -16zM314 336c0 9 7 16 16 16h64c9 0 16 -7 16 -16s-7 -16 -16 -16h-64 c-9 0 -16 7 -16 16zM314 394c-7 -5 -18 -4 -23 3s-4 17 3 22l52 39c7 5 17 3 22 -4s4 -17 -3 -22zM154 394l-52 38c-7 5 -8 15 -3 22s16 9 23 4l51 -39c7 -5 8 -15 3 -22s-15 -8 -22 -3z"/>
    <glyph glyph-name="glyph137" unicode="&#57387;" d="M160 174c-56 25 -96 80 -96 146c0 88 72 160 160 160s160 -72 160 -160c0 -23 -5 -44 -14 -64h-36c11 19 18 41 18 64c0 71 -57 128 -128 128s-128 -57 -128 -128c0 -47 26 -88 64 -110v-36zM416 160c-18 0 -32 -14 -32 -32v30c0 18 -16 34 -34 34c-14 0 -25 -8 -30 -20 v18c0 18 -16 34 -34 34c-14 0 -25 -8 -30 -20v116c0 18 -14 32 -32 32s-32 -14 -32 -32v-273l-45 54c-11 14 -31 17 -45 6s-17 -31 -6 -45l57 -69c11 -14 34 -25 52 -25h211c18 0 32 14 32 32v128c0 18 -14 32 -32 32z"/>
    <glyph glyph-name="glyph138" unicode="&#57388;" d="M358 303l-181 -181l-23 23l181 181zM131 31l136 136c25 -25 25 -65 0 -90l-90 -91c-25 -25 -66 -25 -91 0l-68 68c-25 25 -25 66 0 91l91 90c25 25 65 25 90 0l-136 -136zM493 393l-68 68c-25 25 -65 25 -90 0l-91 -90c-25 -25 -25 -66 0 -91c38 38 76 75 114 113l22 23 l68 -68l-136 -136c25 -25 66 -25 91 0l90 91c25 25 25 65 0 90z"/>
    <glyph glyph-name="glyph139" unicode="&#57389;" d="M128 224h256v-32h-256v32zM80 160h142c-7 -36 -39 -64 -78 -64h-64c-44 0 -80 36 -80 80v64c0 44 36 80 80 80h64c39 0 71 -28 78 -64h-142c-9 0 -16 -7 -16 -16v-64c0 -9 7 -16 16 -16zM432 320h-64c-38 0 -71 -28 -78 -64h142c9 0 16 -7 16 -16v-64 c0 -9 -7 -16 -16 -16h-142c7 -36 40 -64 78 -64h64c44 0 80 36 80 80v64c0 44 -36 80 -80 80z"/>
    <glyph glyph-name="glyph140" unicode="&#57390;" d="M452 397c37 -37 37 -98 0 -135l-136 -136c-37 -38 -99 -38 -136 0l-20 20l47 44l19 -19c12 -12 33 -12 45 0l136 136c13 13 12 33 0 45l-23 23c-13 13 -32 13 -45 0l-28 -28c-26 15 -58 17 -85 6l68 67c38 37 97 37 135 0zM169 70l-27 -27c-13 -12 -34 -12 -46 0l-22 23 c-13 12 -13 32 0 45l135 136c13 13 34 13 46 0l18 -19l47 44l-20 20c-38 38 -98 38 -136 0l-136 -136c-37 -38 -37 -99 0 -136l23 -22c38 -38 99 -37 136 0l67 67c-27 -11 -59 -10 -85 5z"/>
    <glyph glyph-name="glyph141" unicode="&#57391;" d="M480 240l-96 -80v64h-128v-128h64l-80 -96l-80 96h64v128h-128v-64l-96 80l96 80v-64h128v128h-64l80 96l80 -96h-64v-128h128v64z"/>
    <glyph glyph-name="glyph142" unicode="&#57392;" d="M240 448c133 0 240 -107 240 -240s-107 -240 -240 -240s-240 107 -240 240s107 240 240 240zM65 208c0 -36 11 -70 30 -98l243 243c-28 19 -62 30 -98 30c-96 0 -175 -79 -175 -175zM240 33c-37 0 -71 12 -99 31l243 243c19 -28 31 -62 31 -99c0 -96 -79 -175 -175 -175z "/>
    <glyph glyph-name="glyph143" unicode="&#57393;" d="M256 480l256 -128l-256 -128l-256 128zM256 177l166 81l90 -34l-256 -128l-256 128l98 32zM256 49l166 81l90 -34l-256 -128l-256 128l98 32z"/>
    <glyph glyph-name="glyph144" unicode="&#57394;" d="M112 480c9 0 16 -7 16 -16v-96c0 -9 -7 -16 -16 -16h-96c-9 0 -16 7 -16 16v96c0 9 7 16 16 16h96zM112 288c9 0 16 -7 16 -16v-96c0 -9 -7 -16 -16 -16h-96c-9 0 -16 7 -16 16v96c0 9 7 16 16 16h96zM112 96c9 0 16 -7 16 -16v-96c0 -9 -7 -16 -16 -16h-96 c-9 0 -16 7 -16 16v96c0 9 7 16 16 16h96zM304 480c9 0 16 -7 16 -16v-96c0 -9 -7 -16 -16 -16h-96c-9 0 -16 7 -16 16v96c0 9 7 16 16 16h96zM304 288c9 0 16 -7 16 -16v-96c0 -9 -7 -16 -16 -16h-96c-9 0 -16 7 -16 16v96c0 9 7 16 16 16h96zM304 96c9 0 16 -7 16 -16v-96 c0 -9 -7 -16 -16 -16h-96c-9 0 -16 7 -16 16v96c0 9 7 16 16 16h96zM496 480c9 0 16 -7 16 -16v-96c0 -9 -7 -16 -16 -16h-96c-9 0 -16 7 -16 16v96c0 9 7 16 16 16h96zM496 288c9 0 16 -7 16 -16v-96c0 -9 -7 -16 -16 -16h-96c-9 0 -16 7 -16 16v96c0 9 7 16 16 16h96z M496 96h-96c-9 0 -16 -7 -16 -16v-96c0 -9 7 -16 16 -16h96c9 0 16 7 16 16v96c0 9 -7 16 -16 16z"/>
    <glyph glyph-name="glyph145" unicode="&#57395;" d="M208 480c9 0 16 -7 16 -16v-192c0 -9 -7 -16 -16 -16h-192c-9 0 -16 7 -16 16v192c0 9 7 16 16 16h192zM496 480c9 0 16 -7 16 -16v-192c0 -9 -7 -16 -16 -16h-192c-9 0 -16 7 -16 16v192c0 9 7 16 16 16h192zM208 192c9 0 16 -7 16 -16v-192c0 -9 -7 -16 -16 -16h-192 c-9 0 -16 7 -16 16v192c0 9 7 16 16 16h192zM496 192h-192c-9 0 -16 -7 -16 -16v-192c0 -9 7 -16 16 -16h192c9 0 16 7 16 16v192c0 9 -7 16 -16 16z"/>
    <glyph glyph-name="glyph146" unicode="&#57396;" d="M32 64v-64h64v64h-64zM224 64v-64h64v64h-64zM416 64v-64h64v64h-64zM160 416v-64h160v64h-160zM128 448h224v-128h-96v-96h192v-128h64v-128h-128v128h32v96h-160v-96h64v-128h-128v128h32v96h-128v-96h32v-128h-128v128h64v128h160v96h-96v128z"/>
    <glyph glyph-name="glyph147" unicode="&#57397;" d="M121 480h359v-448h-32v416h-329l-32 -32h105v-224l64 64l64 -64v224h96v-448h-368c-9 0 -16 7 -16 16v407c0 9 5 21 11 27l51 51c6 6 18 11 27 11z"/>
    <glyph glyph-name="glyph148" unicode="&#57398;" d="M448 288c18 0 32 -14 32 -32v-224c0 -18 -14 -32 -32 -32h-384c-18 0 -32 14 -32 32v224c0 18 14 32 32 32h384zM344 184v8c0 18 -14 32 -32 32h-120c-18 0 -32 -14 -32 -32v-8c0 -18 14 -32 32 -32h120c18 0 32 14 32 32zM480 416h-448c-18 0 -32 -14 -32 -32v-64h512 v64c0 18 -14 32 -32 32z"/>
    <glyph glyph-name="glyph149" unicode="&#57399;" d="M496 128h-144v-64h144c9 0 16 -7 16 -16v-64c0 -9 -7 -16 -16 -16h-320c-9 0 -16 7 -16 16v64c0 9 7 16 16 16h144v64h-144c-9 0 -16 7 -16 16v64c0 9 7 16 16 16h144v48c0 9 -7 16 -16 16h-112c-18 0 -32 14 -32 32v64h-144c-9 0 -16 7 -16 16v64c0 9 7 16 16 16h320 c9 0 16 -7 16 -16v-64c0 -9 -7 -16 -16 -16h-144v-48c0 -9 7 -16 16 -16h112c18 0 32 -14 32 -32v-64h144c9 0 16 -7 16 -16v-64c0 -9 -7 -16 -16 -16z"/>
    <glyph glyph-name="glyph150" unicode="&#57400;" d="M496 224h-144v64c0 18 -14 32 -32 32h-80c-9 0 -16 7 -16 16v48h176c9 0 16 7 16 16v64c0 9 -7 16 -16 16h-320c-9 0 -16 -7 -16 -16v-64c0 -9 7 -16 16 -16h112v-64c0 -18 14 -32 32 -32h80c9 0 16 -7 16 -16v-48h-144c-9 0 -16 -7 -16 -16v-64c0 -9 7 -16 16 -16h240 v-82c0 -9 -7 -16 -16 -16h-48v18c0 9 -7 16 -16 16h-320c-9 0 -16 -7 -16 -16v-64c0 -9 7 -16 16 -16h320c9 0 16 7 16 16v14h64c18 0 32 14 32 32v98h48c9 0 16 7 16 16v64c0 9 -7 16 -16 16z"/>
    <glyph glyph-name="glyph151" unicode="&#57401;" d="M352 448l96 -96v-128h-224v224h128zM416 256v83l-13 13h-51v51l-13 13h-83v-160h160zM256 160v-160h160v83l-13 13h-51v51l-13 13h-83zM224 192h128l96 -96v-128h-224v224zM32 480h32v-32h-32v32zM32 416h32v-32h-32v32zM32 352h32v-32h-32v32zM32 288h32v-32h-32v32z M32 224h32v-32h-32v32zM32 160h32v-32h-32v32zM32 96h32v-32h-32v32zM96 96h32v-32h-32v32zM160 96h32v-32h-32v32zM96 352h32v-32h-32v32zM160 352h32v-32h-32v32z"/>
    <glyph glyph-name="glyph152" unicode="&#57402;" d="M112 480c9 0 16 -7 16 -16v-96c0 -9 -7 -16 -16 -16h-96c-9 0 -16 7 -16 16v96c0 9 7 16 16 16h96zM112 288c9 0 16 -7 16 -16v-96c0 -9 -7 -16 -16 -16h-96c-9 0 -16 7 -16 16v96c0 9 7 16 16 16h96zM112 96c9 0 16 -7 16 -16v-96c0 -9 -7 -16 -16 -16h-96 c-9 0 -16 7 -16 16v96c0 9 7 16 16 16h96zM496 480c9 0 16 -7 16 -16v-96c0 -9 -7 -16 -16 -16h-288c-9 0 -16 7 -16 16v96c0 9 7 16 16 16h288zM496 288c9 0 16 -7 16 -16v-96c0 -9 -7 -16 -16 -16h-288c-9 0 -16 7 -16 16v96c0 9 7 16 16 16h288zM496 96h-288 c-9 0 -16 -7 -16 -16v-96c0 -9 7 -16 16 -16h288c9 0 16 7 16 16v96c0 9 -7 16 -16 16z"/>
    <glyph glyph-name="glyph153" unicode="&#57403;" d="M496 480c9 0 16 -7 16 -16v-96c0 -9 -7 -16 -16 -16h-480c-9 0 -16 7 -16 16v96c0 9 7 16 16 16h480zM496 288c9 0 16 -7 16 -16v-96c0 -9 -7 -16 -16 -16h-480c-9 0 -16 7 -16 16v96c0 9 7 16 16 16h480zM496 96h-480c-9 0 -16 -7 -16 -16v-96c0 -9 7 -16 16 -16h480 c9 0 16 7 16 16v96c0 9 -7 16 -16 16z"/>
    <glyph glyph-name="glyph154" unicode="&#57404;" d="M64 448v-416h352v416h-352zM32 480h416v-480h-32v-32h-352v32h-32v480zM384 416v-352h-288v352h288zM352 96v128h-224v-128h224zM352 256v128h-224v-128h224zM240 320c-27 0 -48 14 -48 32h96c0 -18 -21 -32 -48 -32zM240 160c27 0 48 14 48 32h-96c0 -18 21 -32 48 -32z "/>
    <glyph glyph-name="glyph155" unicode="&#57405;" d="M378 137c-18 0 -35 -6 -49 -16l-160 83l158 82c14 -11 32 -17 51 -17c47 0 84 38 84 85s-37 84 -84 84s-85 -37 -85 -84l1 -3l-159 -83c-14 11 -32 17 -51 17c-47 0 -84 -37 -84 -84s37 -84 84 -84c21 0 41 8 56 21l154 -80l-1 -6c0 -47 38 -84 85 -84s84 37 84 84 s-37 85 -84 85z"/>
    <glyph glyph-name="glyph156" unicode="&#57406;" d="M0 -0v320h512v-320h-512zM480 32v256h-448v-256h448zM352 256h96v-96h-96v96zM32 384h448v-32h-448v32zM64 448h384v-32h-384v32zM96 192h128v-32h-128v32zM96 128h192v-32h-192v32z"/>
    <glyph glyph-name="glyph157" unicode="&#57407;" d="M0 320l96 55v-32l-68 -39l196 -112v-224l-224 128v224zM320 160v-32l96 55v32zM384 343v32l96 -55v-224l-224 -128v224l196 112zM329 357c-30 -34 -59 -67 -89 -101c-30 34 -59 67 -89 101c-4 5 -5 12 -2 18c2 5 6 7 11 8c1 0 2 1 3 1h29v96h96v-96h29c1 0 2 -1 3 -1 c5 -1 9 -3 11 -8c3 -6 2 -13 -2 -18z"/>
    <glyph glyph-name="glyph158" unicode="&#57408;" d="M448 416c35 0 64 -29 64 -64v-256c0 -35 -29 -64 -64 -64h-384c-35 0 -64 29 -64 64v256c0 35 29 64 64 64h384zM480 96v160h-448v-160c0 -18 14 -32 32 -32h384c18 0 32 14 32 32zM480 320v32c0 18 -14 32 -32 32h-384c-18 0 -32 -14 -32 -32v-32h448zM64 224h192v-32 h-192v32zM64 160h64v-32h-64v32zM352 224h96v-64h-96v64z"/>
    <glyph glyph-name="glyph159" unicode="&#57409;" d="M118 256h-86c-18 0 -32 14 -32 32s14 32 32 32h150zM480 320c18 0 32 -14 32 -32s-14 -32 -32 -32h-181l64 64h117zM256 256h-91l201 201c12 12 34 12 46 0s12 -33 0 -45l-152 -152zM453 224c18 0 29 -15 27 -32l-27 -192c-3 -17 -19 -32 -37 -32h-320 c-18 0 -35 15 -37 32l-27 192c-2 17 9 32 27 32h394zM128 48v96c0 9 -7 16 -16 16s-16 -7 -16 -16v-96c0 -9 7 -16 16 -16s16 7 16 16zM224 48v96c0 9 -7 16 -16 16s-16 -7 -16 -16v-96c0 -9 7 -16 16 -16s16 7 16 16zM320 48v96c0 9 -7 16 -16 16s-16 -7 -16 -16v-96 c0 -9 7 -16 16 -16s16 7 16 16zM416 48v96c0 9 -7 16 -16 16s-16 -7 -16 -16v-96c0 -9 7 -16 16 -16s16 7 16 16z"/>
  </font>
</defs>
</svg>
